<?xml version="1.0" encoding="utf-8" standalone="no"?>
<!DOCTYPE svg PUBLIC "-//W3C//DTD SVG 1.1//EN"
  "http://www.w3.org/Graphics/SVG/1.1/DTD/svg11.dtd">
<svg height="525.6pt" version="1.1" viewBox="0 0 252 525.6" width="252pt" xmlns="http://www.w3.org/2000/svg" xmlns:xlink="http://www.w3.org/1999/xlink">
 <metadata>
  <rdf:RDF xmlns:cc="http://creativecommons.org/ns#" xmlns:dc="http://purl.org/dc/elements/1.1/" xmlns:rdf="http://www.w3.org/1999/02/22-rdf-syntax-ns#">
   <cc:Work>
    <dc:type rdf:resource="http://purl.org/dc/dcmitype/StillImage"/>
    <dc:date>2022-04-26T18:14:40.463707</dc:date>
    <dc:format>image/svg+xml</dc:format>
    <dc:creator>
     <cc:Agent>
      <dc:title>Matplotlib v3.4.2, https://matplotlib.org/</dc:title>
     </cc:Agent>
    </dc:creator>
   </cc:Work>
  </rdf:RDF>
 </metadata>
 <defs>
  <style type="text/css">*{stroke-linecap:butt;stroke-linejoin:round;}</style>
 </defs>
 <g id="figure_1">
  <g id="patch_1">
   <path d="M 0 525.6 
L 252 525.6 
L 252 0 
L 0 0 
z
" style="fill:#ffffff;"/>
  </g>
  <g id="axes_1">
   <g id="patch_2">
    <path d="M 75.6 67.774737 
L 176.4 67.774737 
L 176.4 26.28 
L 75.6 26.28 
z
" style="fill:#ffffff;"/>
   </g>
   <g id="matplotlib.axis_1">
    <g id="xtick_1"/>
    <g id="xtick_2"/>
   </g>
   <g id="matplotlib.axis_2">
    <g id="ytick_1">
     <g id="line2d_1">
      <defs>
       <path d="M 0 0 
L -3.5 0 
" id="m7ab4eb5bdf" style="stroke:#000000;stroke-width:1.5;"/>
      </defs>
      <g>
       <use style="stroke:#000000;stroke-width:1.5;" x="75.6" xlink:href="#m7ab4eb5bdf" y="67.774737"/>
      </g>
     </g>
     <g id="text_1">
      <!-- 0 -->
      <g transform="translate(63.595156 70.995752)scale(0.09 -0.09)">
       <defs>
        <path d="M 266 2259 
Q 266 3072 433 3567 
Q 600 4063 929 4331 
Q 1259 4600 1759 4600 
Q 2128 4600 2406 4451 
Q 2684 4303 2865 4023 
Q 3047 3744 3150 3342 
Q 3253 2941 3253 2259 
Q 3253 1453 3087 958 
Q 2922 463 2592 192 
Q 2263 -78 1759 -78 
Q 1097 -78 719 397 
Q 266 969 266 2259 
z
M 844 2259 
Q 844 1131 1108 757 
Q 1372 384 1759 384 
Q 2147 384 2411 759 
Q 2675 1134 2675 2259 
Q 2675 3391 2411 3762 
Q 2147 4134 1753 4134 
Q 1366 4134 1134 3806 
Q 844 3388 844 2259 
z
" id="ArialMT-30" transform="scale(0.015625)"/>
       </defs>
       <use xlink:href="#ArialMT-30"/>
      </g>
     </g>
    </g>
    <g id="ytick_2">
     <g id="line2d_2">
      <g>
       <use style="stroke:#000000;stroke-width:1.5;" x="75.6" xlink:href="#m7ab4eb5bdf" y="26.28"/>
      </g>
     </g>
     <g id="text_2">
      <!-- 120 -->
      <g transform="translate(53.585469 29.501016)scale(0.09 -0.09)">
       <defs>
        <path d="M 2384 0 
L 1822 0 
L 1822 3584 
Q 1619 3391 1289 3197 
Q 959 3003 697 2906 
L 697 3450 
Q 1169 3672 1522 3987 
Q 1875 4303 2022 4600 
L 2384 4600 
L 2384 0 
z
" id="ArialMT-31" transform="scale(0.015625)"/>
        <path d="M 3222 541 
L 3222 0 
L 194 0 
Q 188 203 259 391 
Q 375 700 629 1000 
Q 884 1300 1366 1694 
Q 2113 2306 2375 2664 
Q 2638 3022 2638 3341 
Q 2638 3675 2398 3904 
Q 2159 4134 1775 4134 
Q 1369 4134 1125 3890 
Q 881 3647 878 3216 
L 300 3275 
Q 359 3922 746 4261 
Q 1134 4600 1788 4600 
Q 2447 4600 2831 4234 
Q 3216 3869 3216 3328 
Q 3216 3053 3103 2787 
Q 2991 2522 2730 2228 
Q 2469 1934 1863 1422 
Q 1356 997 1212 845 
Q 1069 694 975 541 
L 3222 541 
z
" id="ArialMT-32" transform="scale(0.015625)"/>
       </defs>
       <use xlink:href="#ArialMT-31"/>
       <use x="55.615234" xlink:href="#ArialMT-32"/>
       <use x="111.230469" xlink:href="#ArialMT-30"/>
      </g>
     </g>
    </g>
    <g id="text_3">
     <!-- Pressure -->
     <g transform="translate(7.194375 44.475868)scale(0.09 -0.09)">
      <defs>
       <path d="M 494 0 
L 494 4581 
L 2222 4581 
Q 2678 4581 2919 4538 
Q 3256 4481 3484 4323 
Q 3713 4166 3852 3881 
Q 3991 3597 3991 3256 
Q 3991 2672 3619 2267 
Q 3247 1863 2275 1863 
L 1100 1863 
L 1100 0 
L 494 0 
z
M 1100 2403 
L 2284 2403 
Q 2872 2403 3119 2622 
Q 3366 2841 3366 3238 
Q 3366 3525 3220 3729 
Q 3075 3934 2838 4000 
Q 2684 4041 2272 4041 
L 1100 4041 
L 1100 2403 
z
" id="ArialMT-50" transform="scale(0.015625)"/>
       <path d="M 416 0 
L 416 3319 
L 922 3319 
L 922 2816 
Q 1116 3169 1280 3281 
Q 1444 3394 1641 3394 
Q 1925 3394 2219 3213 
L 2025 2691 
Q 1819 2813 1613 2813 
Q 1428 2813 1281 2702 
Q 1134 2591 1072 2394 
Q 978 2094 978 1738 
L 978 0 
L 416 0 
z
" id="ArialMT-72" transform="scale(0.015625)"/>
       <path d="M 2694 1069 
L 3275 997 
Q 3138 488 2766 206 
Q 2394 -75 1816 -75 
Q 1088 -75 661 373 
Q 234 822 234 1631 
Q 234 2469 665 2931 
Q 1097 3394 1784 3394 
Q 2450 3394 2872 2941 
Q 3294 2488 3294 1666 
Q 3294 1616 3291 1516 
L 816 1516 
Q 847 969 1125 678 
Q 1403 388 1819 388 
Q 2128 388 2347 550 
Q 2566 713 2694 1069 
z
M 847 1978 
L 2700 1978 
Q 2663 2397 2488 2606 
Q 2219 2931 1791 2931 
Q 1403 2931 1139 2672 
Q 875 2413 847 1978 
z
" id="ArialMT-65" transform="scale(0.015625)"/>
       <path d="M 197 991 
L 753 1078 
Q 800 744 1014 566 
Q 1228 388 1613 388 
Q 2000 388 2187 545 
Q 2375 703 2375 916 
Q 2375 1106 2209 1216 
Q 2094 1291 1634 1406 
Q 1016 1563 777 1677 
Q 538 1791 414 1992 
Q 291 2194 291 2438 
Q 291 2659 392 2848 
Q 494 3038 669 3163 
Q 800 3259 1026 3326 
Q 1253 3394 1513 3394 
Q 1903 3394 2198 3281 
Q 2494 3169 2634 2976 
Q 2775 2784 2828 2463 
L 2278 2388 
Q 2241 2644 2061 2787 
Q 1881 2931 1553 2931 
Q 1166 2931 1000 2803 
Q 834 2675 834 2503 
Q 834 2394 903 2306 
Q 972 2216 1119 2156 
Q 1203 2125 1616 2013 
Q 2213 1853 2448 1751 
Q 2684 1650 2818 1456 
Q 2953 1263 2953 975 
Q 2953 694 2789 445 
Q 2625 197 2315 61 
Q 2006 -75 1616 -75 
Q 969 -75 630 194 
Q 291 463 197 991 
z
" id="ArialMT-73" transform="scale(0.015625)"/>
       <path d="M 2597 0 
L 2597 488 
Q 2209 -75 1544 -75 
Q 1250 -75 995 37 
Q 741 150 617 320 
Q 494 491 444 738 
Q 409 903 409 1263 
L 409 3319 
L 972 3319 
L 972 1478 
Q 972 1038 1006 884 
Q 1059 663 1231 536 
Q 1403 409 1656 409 
Q 1909 409 2131 539 
Q 2353 669 2445 892 
Q 2538 1116 2538 1541 
L 2538 3319 
L 3100 3319 
L 3100 0 
L 2597 0 
z
" id="ArialMT-75" transform="scale(0.015625)"/>
      </defs>
      <use xlink:href="#ArialMT-50"/>
      <use x="66.699219" xlink:href="#ArialMT-72"/>
      <use x="100" xlink:href="#ArialMT-65"/>
      <use x="155.615234" xlink:href="#ArialMT-73"/>
      <use x="205.615234" xlink:href="#ArialMT-73"/>
      <use x="255.615234" xlink:href="#ArialMT-75"/>
      <use x="311.230469" xlink:href="#ArialMT-72"/>
      <use x="344.53125" xlink:href="#ArialMT-65"/>
     </g>
     <!-- (mm Hg) -->
     <g transform="translate(7.704141 54.126681)scale(0.09 -0.09)">
      <defs>
       <path d="M 1497 -1347 
Q 1031 -759 709 28 
Q 388 816 388 1659 
Q 388 2403 628 3084 
Q 909 3875 1497 4659 
L 1900 4659 
Q 1522 4009 1400 3731 
Q 1209 3300 1100 2831 
Q 966 2247 966 1656 
Q 966 153 1900 -1347 
L 1497 -1347 
z
" id="ArialMT-28" transform="scale(0.015625)"/>
       <path d="M 422 0 
L 422 3319 
L 925 3319 
L 925 2853 
Q 1081 3097 1340 3245 
Q 1600 3394 1931 3394 
Q 2300 3394 2536 3241 
Q 2772 3088 2869 2813 
Q 3263 3394 3894 3394 
Q 4388 3394 4653 3120 
Q 4919 2847 4919 2278 
L 4919 0 
L 4359 0 
L 4359 2091 
Q 4359 2428 4304 2576 
Q 4250 2725 4106 2815 
Q 3963 2906 3769 2906 
Q 3419 2906 3187 2673 
Q 2956 2441 2956 1928 
L 2956 0 
L 2394 0 
L 2394 2156 
Q 2394 2531 2256 2718 
Q 2119 2906 1806 2906 
Q 1569 2906 1367 2781 
Q 1166 2656 1075 2415 
Q 984 2175 984 1722 
L 984 0 
L 422 0 
z
" id="ArialMT-6d" transform="scale(0.015625)"/>
       <path id="ArialMT-20" transform="scale(0.015625)"/>
       <path d="M 513 0 
L 513 4581 
L 1119 4581 
L 1119 2700 
L 3500 2700 
L 3500 4581 
L 4106 4581 
L 4106 0 
L 3500 0 
L 3500 2159 
L 1119 2159 
L 1119 0 
L 513 0 
z
" id="ArialMT-48" transform="scale(0.015625)"/>
       <path d="M 319 -275 
L 866 -356 
Q 900 -609 1056 -725 
Q 1266 -881 1628 -881 
Q 2019 -881 2231 -725 
Q 2444 -569 2519 -288 
Q 2563 -116 2559 434 
Q 2191 0 1641 0 
Q 956 0 581 494 
Q 206 988 206 1678 
Q 206 2153 378 2554 
Q 550 2956 876 3175 
Q 1203 3394 1644 3394 
Q 2231 3394 2613 2919 
L 2613 3319 
L 3131 3319 
L 3131 450 
Q 3131 -325 2973 -648 
Q 2816 -972 2473 -1159 
Q 2131 -1347 1631 -1347 
Q 1038 -1347 672 -1080 
Q 306 -813 319 -275 
z
M 784 1719 
Q 784 1066 1043 766 
Q 1303 466 1694 466 
Q 2081 466 2343 764 
Q 2606 1063 2606 1700 
Q 2606 2309 2336 2618 
Q 2066 2928 1684 2928 
Q 1309 2928 1046 2623 
Q 784 2319 784 1719 
z
" id="ArialMT-67" transform="scale(0.015625)"/>
       <path d="M 791 -1347 
L 388 -1347 
Q 1322 153 1322 1656 
Q 1322 2244 1188 2822 
Q 1081 3291 891 3722 
Q 769 4003 388 4659 
L 791 4659 
Q 1378 3875 1659 3084 
Q 1900 2403 1900 1659 
Q 1900 816 1576 28 
Q 1253 -759 791 -1347 
z
" id="ArialMT-29" transform="scale(0.015625)"/>
      </defs>
      <use xlink:href="#ArialMT-28"/>
      <use x="33.300781" xlink:href="#ArialMT-6d"/>
      <use x="116.601562" xlink:href="#ArialMT-6d"/>
      <use x="199.902344" xlink:href="#ArialMT-20"/>
      <use x="227.685547" xlink:href="#ArialMT-48"/>
      <use x="299.902344" xlink:href="#ArialMT-67"/>
      <use x="355.517578" xlink:href="#ArialMT-29"/>
     </g>
    </g>
   </g>
   <g id="line2d_3">
    <path clip-path="url(#p484658804c)" d="M 75.6 66.503687 
L 78.5736 65.688547 
L 80.9928 65.254848 
L 84.42 64.805097 
L 88.3008 64.541083 
L 94.0464 64.395734 
L 100.7496 64.258611 
L 100.9512 63.832391 
L 101.2032 62.654632 
L 101.4552 60.32287 
L 101.7072 55.806859 
L 102.3624 40.438869 
L 102.6648 39.661154 
L 103.32 37.615532 
L 103.9752 36.410698 
L 104.8824 34.8941 
L 105.7896 33.772428 
L 106.7976 32.883196 
L 107.9064 32.211327 
L 109.116 31.743819 
L 110.5776 31.426039 
L 112.4424 31.267667 
L 114.6096 31.300863 
L 117.2808 31.555018 
L 120.6576 32.104824 
L 124.9416 33.039493 
L 128.9736 34.145673 
L 129.6288 34.526249 
L 130.4352 35.282594 
L 131.3928 36.510597 
L 132.6024 38.443283 
L 134.3664 41.728214 
L 139.608 51.74162 
L 141.5232 54.809948 
L 143.2872 57.233863 
L 145.0008 59.221185 
L 146.7144 60.871223 
L 148.428 62.220182 
L 150.2424 63.365644 
L 152.1576 64.311552 
L 154.2744 65.104464 
L 154.9296 65.198298 
L 156.9456 65.378934 
L 157.3488 65.627063 
L 157.6008 66.103588 
L 158.1552 67.535899 
L 158.6088 67.51433 
L 159.9696 67.162458 
L 165.564 65.568821 
L 168.4368 65.097559 
L 171.7632 64.724369 
L 175.9968 64.4915 
L 176.4 64.478277 
L 176.4 64.478277 
" style="fill:none;stroke:#1f77b4;stroke-linecap:square;"/>
   </g>
   <g id="line2d_4">
    <path clip-path="url(#p484658804c)" d="M 75.6 41.366414 
L 87.6456 43.510275 
L 101.0016 45.652544 
L 102.0096 45.763128 
L 102.2112 44.900244 
L 102.7152 42.802997 
L 103.572 40.285407 
L 104.3784 38.61725 
L 105.4368 36.949784 
L 106.5456 35.600029 
L 107.7552 34.468468 
L 109.0152 33.586497 
L 110.376 32.903252 
L 111.888 32.398745 
L 113.5512 32.078544 
L 115.4664 31.936424 
L 117.7848 31.999012 
L 120.456 32.293625 
L 123.732 32.875588 
L 127.764 33.817346 
L 137.4912 36.232651 
L 147.42 38.449058 
L 158.6088 40.715431 
L 170.5032 42.89553 
L 176.4 43.898804 
L 176.4 43.898804 
" style="fill:none;stroke:#ff7f0e;stroke-linecap:square;"/>
   </g>
   <g id="line2d_5">
    <path clip-path="url(#p484658804c)" d="M 75.6 41.517317 
L 87.7968 43.672139 
L 100.7496 45.736986 
L 102.2616 45.877999 
L 102.6144 45.540992 
L 103.1688 44.664658 
L 106.9488 37.907136 
L 108.1584 36.446141 
L 109.4184 35.26814 
L 110.7288 34.35121 
L 112.0896 33.666305 
L 113.6016 33.155678 
L 115.3152 32.820262 
L 117.2808 32.672264 
L 119.5992 32.731394 
L 122.3712 33.032231 
L 125.7984 33.636706 
L 129.9312 34.596202 
L 139.7088 36.931042 
L 150.2424 39.209656 
L 161.6832 41.451513 
L 173.7288 43.587213 
L 176.4 44.032728 
L 176.4 44.032728 
" style="fill:none;stroke:#2ca02c;stroke-linecap:square;"/>
   </g>
   <g id="patch_3">
    <path d="M 75.6 67.774737 
L 75.6 26.28 
" style="fill:none;stroke:#000000;stroke-linecap:square;stroke-linejoin:miter;stroke-width:1.5;"/>
   </g>
   <g id="legend_1">
    <g id="patch_4">
     <path d="M 191.38 61.585156 
L 233.628281 61.585156 
Q 235.028281 61.585156 235.028281 60.185156 
L 235.028281 31.18 
Q 235.028281 29.78 233.628281 29.78 
L 191.38 29.78 
Q 189.98 29.78 189.98 31.18 
L 189.98 60.185156 
Q 189.98 61.585156 191.38 61.585156 
z
" style="fill:#ffffff;opacity:0.8;stroke:#000000;stroke-linejoin:miter;"/>
    </g>
    <g id="line2d_6">
     <path d="M 192.78 35.140469 
L 199.78 35.140469 
" style="fill:none;stroke:#1f77b4;stroke-linecap:square;"/>
    </g>
    <g id="line2d_7"/>
    <g id="text_4">
     <!-- Ventricle -->
     <g transform="translate(205.38 37.590469)scale(0.07 -0.07)">
      <defs>
       <path d="M 1803 0 
L 28 4581 
L 684 4581 
L 1875 1253 
Q 2019 853 2116 503 
Q 2222 878 2363 1253 
L 3600 4581 
L 4219 4581 
L 2425 0 
L 1803 0 
z
" id="ArialMT-56" transform="scale(0.015625)"/>
       <path d="M 422 0 
L 422 3319 
L 928 3319 
L 928 2847 
Q 1294 3394 1984 3394 
Q 2284 3394 2536 3286 
Q 2788 3178 2913 3003 
Q 3038 2828 3088 2588 
Q 3119 2431 3119 2041 
L 3119 0 
L 2556 0 
L 2556 2019 
Q 2556 2363 2490 2533 
Q 2425 2703 2258 2804 
Q 2091 2906 1866 2906 
Q 1506 2906 1245 2678 
Q 984 2450 984 1813 
L 984 0 
L 422 0 
z
" id="ArialMT-6e" transform="scale(0.015625)"/>
       <path d="M 1650 503 
L 1731 6 
Q 1494 -44 1306 -44 
Q 1000 -44 831 53 
Q 663 150 594 308 
Q 525 466 525 972 
L 525 2881 
L 113 2881 
L 113 3319 
L 525 3319 
L 525 4141 
L 1084 4478 
L 1084 3319 
L 1650 3319 
L 1650 2881 
L 1084 2881 
L 1084 941 
Q 1084 700 1114 631 
Q 1144 563 1211 522 
Q 1278 481 1403 481 
Q 1497 481 1650 503 
z
" id="ArialMT-74" transform="scale(0.015625)"/>
       <path d="M 425 3934 
L 425 4581 
L 988 4581 
L 988 3934 
L 425 3934 
z
M 425 0 
L 425 3319 
L 988 3319 
L 988 0 
L 425 0 
z
" id="ArialMT-69" transform="scale(0.015625)"/>
       <path d="M 2588 1216 
L 3141 1144 
Q 3050 572 2676 248 
Q 2303 -75 1759 -75 
Q 1078 -75 664 370 
Q 250 816 250 1647 
Q 250 2184 428 2587 
Q 606 2991 970 3192 
Q 1334 3394 1763 3394 
Q 2303 3394 2647 3120 
Q 2991 2847 3088 2344 
L 2541 2259 
Q 2463 2594 2264 2762 
Q 2066 2931 1784 2931 
Q 1359 2931 1093 2626 
Q 828 2322 828 1663 
Q 828 994 1084 691 
Q 1341 388 1753 388 
Q 2084 388 2306 591 
Q 2528 794 2588 1216 
z
" id="ArialMT-63" transform="scale(0.015625)"/>
       <path d="M 409 0 
L 409 4581 
L 972 4581 
L 972 0 
L 409 0 
z
" id="ArialMT-6c" transform="scale(0.015625)"/>
      </defs>
      <use xlink:href="#ArialMT-56"/>
      <use x="61.199219" xlink:href="#ArialMT-65"/>
      <use x="116.814453" xlink:href="#ArialMT-6e"/>
      <use x="172.429688" xlink:href="#ArialMT-74"/>
      <use x="200.212891" xlink:href="#ArialMT-72"/>
      <use x="233.513672" xlink:href="#ArialMT-69"/>
      <use x="255.730469" xlink:href="#ArialMT-63"/>
      <use x="305.730469" xlink:href="#ArialMT-6c"/>
      <use x="327.947266" xlink:href="#ArialMT-65"/>
     </g>
    </g>
    <g id="line2d_8">
     <path d="M 192.78 45.042187 
L 199.78 45.042187 
" style="fill:none;stroke:#ff7f0e;stroke-linecap:square;"/>
    </g>
    <g id="line2d_9"/>
    <g id="text_5">
     <!-- Aorta -->
     <g transform="translate(205.38 47.492188)scale(0.07 -0.07)">
      <defs>
       <path d="M -9 0 
L 1750 4581 
L 2403 4581 
L 4278 0 
L 3588 0 
L 3053 1388 
L 1138 1388 
L 634 0 
L -9 0 
z
M 1313 1881 
L 2866 1881 
L 2388 3150 
Q 2169 3728 2063 4100 
Q 1975 3659 1816 3225 
L 1313 1881 
z
" id="ArialMT-41" transform="scale(0.015625)"/>
       <path d="M 213 1659 
Q 213 2581 725 3025 
Q 1153 3394 1769 3394 
Q 2453 3394 2887 2945 
Q 3322 2497 3322 1706 
Q 3322 1066 3130 698 
Q 2938 331 2570 128 
Q 2203 -75 1769 -75 
Q 1072 -75 642 372 
Q 213 819 213 1659 
z
M 791 1659 
Q 791 1022 1069 705 
Q 1347 388 1769 388 
Q 2188 388 2466 706 
Q 2744 1025 2744 1678 
Q 2744 2294 2464 2611 
Q 2184 2928 1769 2928 
Q 1347 2928 1069 2612 
Q 791 2297 791 1659 
z
" id="ArialMT-6f" transform="scale(0.015625)"/>
       <path d="M 2588 409 
Q 2275 144 1986 34 
Q 1697 -75 1366 -75 
Q 819 -75 525 192 
Q 231 459 231 875 
Q 231 1119 342 1320 
Q 453 1522 633 1644 
Q 813 1766 1038 1828 
Q 1203 1872 1538 1913 
Q 2219 1994 2541 2106 
Q 2544 2222 2544 2253 
Q 2544 2597 2384 2738 
Q 2169 2928 1744 2928 
Q 1347 2928 1158 2789 
Q 969 2650 878 2297 
L 328 2372 
Q 403 2725 575 2942 
Q 747 3159 1072 3276 
Q 1397 3394 1825 3394 
Q 2250 3394 2515 3294 
Q 2781 3194 2906 3042 
Q 3031 2891 3081 2659 
Q 3109 2516 3109 2141 
L 3109 1391 
Q 3109 606 3145 398 
Q 3181 191 3288 0 
L 2700 0 
Q 2613 175 2588 409 
z
M 2541 1666 
Q 2234 1541 1622 1453 
Q 1275 1403 1131 1340 
Q 988 1278 909 1158 
Q 831 1038 831 891 
Q 831 666 1001 516 
Q 1172 366 1500 366 
Q 1825 366 2078 508 
Q 2331 650 2450 897 
Q 2541 1088 2541 1459 
L 2541 1666 
z
" id="ArialMT-61" transform="scale(0.015625)"/>
      </defs>
      <use xlink:href="#ArialMT-41"/>
      <use x="66.699219" xlink:href="#ArialMT-6f"/>
      <use x="122.314453" xlink:href="#ArialMT-72"/>
      <use x="155.615234" xlink:href="#ArialMT-74"/>
      <use x="183.398438" xlink:href="#ArialMT-61"/>
     </g>
    </g>
    <g id="line2d_10">
     <path d="M 192.78 54.943906 
L 199.78 54.943906 
" style="fill:none;stroke:#2ca02c;stroke-linecap:square;"/>
    </g>
    <g id="line2d_11"/>
    <g id="text_6">
     <!-- Arteries -->
     <g transform="translate(205.38 57.393906)scale(0.07 -0.07)">
      <use xlink:href="#ArialMT-41"/>
      <use x="66.699219" xlink:href="#ArialMT-72"/>
      <use x="100" xlink:href="#ArialMT-74"/>
      <use x="127.783203" xlink:href="#ArialMT-65"/>
      <use x="183.398438" xlink:href="#ArialMT-72"/>
      <use x="216.699219" xlink:href="#ArialMT-69"/>
      <use x="238.916016" xlink:href="#ArialMT-65"/>
      <use x="294.53125" xlink:href="#ArialMT-73"/>
     </g>
    </g>
   </g>
  </g>
  <g id="axes_2">
   <g id="patch_5">
    <path d="M 75.6 121.717895 
L 176.4 121.717895 
L 176.4 80.223158 
L 75.6 80.223158 
z
" style="fill:#ffffff;"/>
   </g>
   <g id="matplotlib.axis_3">
    <g id="xtick_3"/>
    <g id="xtick_4"/>
   </g>
   <g id="matplotlib.axis_4">
    <g id="ytick_3">
     <g id="line2d_12">
      <g>
       <use style="stroke:#000000;stroke-width:1.5;" x="75.6" xlink:href="#m7ab4eb5bdf" y="121.717895"/>
      </g>
     </g>
     <g id="text_7">
      <!-- 0 -->
      <g transform="translate(63.595156 124.93891)scale(0.09 -0.09)">
       <use xlink:href="#ArialMT-30"/>
      </g>
     </g>
    </g>
    <g id="ytick_4">
     <g id="line2d_13">
      <g>
       <use style="stroke:#000000;stroke-width:1.5;" x="75.6" xlink:href="#m7ab4eb5bdf" y="80.223158"/>
      </g>
     </g>
     <g id="text_8">
      <!-- 26 -->
      <g transform="translate(58.590312 83.444174)scale(0.09 -0.09)">
       <defs>
        <path d="M 3184 3459 
L 2625 3416 
Q 2550 3747 2413 3897 
Q 2184 4138 1850 4138 
Q 1581 4138 1378 3988 
Q 1113 3794 959 3422 
Q 806 3050 800 2363 
Q 1003 2672 1297 2822 
Q 1591 2972 1913 2972 
Q 2475 2972 2870 2558 
Q 3266 2144 3266 1488 
Q 3266 1056 3080 686 
Q 2894 316 2569 119 
Q 2244 -78 1831 -78 
Q 1128 -78 684 439 
Q 241 956 241 2144 
Q 241 3472 731 4075 
Q 1159 4600 1884 4600 
Q 2425 4600 2770 4297 
Q 3116 3994 3184 3459 
z
M 888 1484 
Q 888 1194 1011 928 
Q 1134 663 1356 523 
Q 1578 384 1822 384 
Q 2178 384 2434 671 
Q 2691 959 2691 1453 
Q 2691 1928 2437 2201 
Q 2184 2475 1800 2475 
Q 1419 2475 1153 2201 
Q 888 1928 888 1484 
z
" id="ArialMT-36" transform="scale(0.015625)"/>
       </defs>
       <use xlink:href="#ArialMT-32"/>
       <use x="55.615234" xlink:href="#ArialMT-36"/>
      </g>
     </g>
    </g>
    <g id="text_9">
     <!-- Pressure -->
     <g transform="translate(7.194375 98.419026)scale(0.09 -0.09)">
      <use xlink:href="#ArialMT-50"/>
      <use x="66.699219" xlink:href="#ArialMT-72"/>
      <use x="100" xlink:href="#ArialMT-65"/>
      <use x="155.615234" xlink:href="#ArialMT-73"/>
      <use x="205.615234" xlink:href="#ArialMT-73"/>
      <use x="255.615234" xlink:href="#ArialMT-75"/>
      <use x="311.230469" xlink:href="#ArialMT-72"/>
      <use x="344.53125" xlink:href="#ArialMT-65"/>
     </g>
     <!-- (mm Hg) -->
     <g transform="translate(7.704141 108.069839)scale(0.09 -0.09)">
      <use xlink:href="#ArialMT-28"/>
      <use x="33.300781" xlink:href="#ArialMT-6d"/>
      <use x="116.601562" xlink:href="#ArialMT-6d"/>
      <use x="199.902344" xlink:href="#ArialMT-20"/>
      <use x="227.685547" xlink:href="#ArialMT-48"/>
      <use x="299.902344" xlink:href="#ArialMT-67"/>
      <use x="355.517578" xlink:href="#ArialMT-29"/>
     </g>
    </g>
   </g>
   <g id="line2d_14">
    <path clip-path="url(#p09516a3938)" d="M 75.6 83.724197 
L 88.9056 85.816329 
L 103.5216 88.068695 
L 104.9328 88.006773 
L 106.4952 87.711522 
L 108.5616 87.075056 
L 112.0392 85.724402 
L 117.2304 83.755637 
L 120.6072 82.725769 
L 123.7824 81.983333 
L 127.008 81.4522 
L 130.4352 81.118646 
L 134.2152 80.989534 
L 138.3984 81.071725 
L 143.5896 81.41294 
L 149.7384 82.048607 
L 157.6512 83.086614 
L 167.8824 84.623994 
L 176.4 85.986617 
L 176.4 85.986617 
" style="fill:none;stroke:#1f77b4;stroke-linecap:square;"/>
   </g>
   <g id="line2d_15">
    <path clip-path="url(#p09516a3938)" d="M 75.6 101.582574 
L 106.4448 102.842577 
L 110.5272 102.525302 
L 123.228 101.428884 
L 129.78 101.144804 
L 137.0376 101.048728 
L 147.42 101.159806 
L 160.524 101.519853 
L 173.0736 102.107482 
L 176.4 102.266918 
L 176.4 102.266918 
" style="fill:none;stroke:#ff7f0e;stroke-linecap:square;"/>
   </g>
   <g id="line2d_16">
    <path clip-path="url(#p09516a3938)" d="M 75.6 107.557321 
L 121.5144 107.853546 
L 171.3096 107.664601 
L 176.4 107.717874 
L 176.4 107.717874 
" style="fill:none;stroke:#2ca02c;stroke-linecap:square;"/>
   </g>
   <g id="line2d_17">
    <path clip-path="url(#p09516a3938)" d="M 75.6 110.495468 
L 78.0696 110.669362 
L 81.3456 110.653834 
L 117.2304 110.083058 
L 157.7016 109.640628 
L 159.1632 109.994834 
L 161.532 110.432332 
L 163.9512 110.648184 
L 166.824 110.671916 
L 176.4 110.498723 
L 176.4 110.498723 
" style="fill:none;stroke:#d62728;stroke-linecap:square;"/>
   </g>
   <g id="patch_6">
    <path d="M 75.6 121.717895 
L 75.6 80.223158 
" style="fill:none;stroke:#000000;stroke-linecap:square;stroke-linejoin:miter;stroke-width:1.5;"/>
   </g>
   <g id="legend_2">
    <g id="patch_7">
     <path d="M 191.38 125.515345 
L 239.457969 125.515345 
Q 240.857969 125.515345 240.857969 124.115345 
L 240.857969 85.123158 
Q 240.857969 83.723158 239.457969 83.723158 
L 191.38 83.723158 
Q 189.98 83.723158 189.98 85.123158 
L 189.98 124.115345 
Q 189.98 125.515345 191.38 125.515345 
z
" style="fill:#ffffff;opacity:0.8;stroke:#000000;stroke-linejoin:miter;"/>
    </g>
    <g id="line2d_18">
     <path d="M 192.78 89.083627 
L 199.78 89.083627 
" style="fill:none;stroke:#1f77b4;stroke-linecap:square;"/>
    </g>
    <g id="line2d_19"/>
    <g id="text_10">
     <!-- Arterioles -->
     <g transform="translate(205.38 91.533627)scale(0.07 -0.07)">
      <use xlink:href="#ArialMT-41"/>
      <use x="66.699219" xlink:href="#ArialMT-72"/>
      <use x="100" xlink:href="#ArialMT-74"/>
      <use x="127.783203" xlink:href="#ArialMT-65"/>
      <use x="183.398438" xlink:href="#ArialMT-72"/>
      <use x="216.699219" xlink:href="#ArialMT-69"/>
      <use x="238.916016" xlink:href="#ArialMT-6f"/>
      <use x="294.53125" xlink:href="#ArialMT-6c"/>
      <use x="316.748047" xlink:href="#ArialMT-65"/>
      <use x="372.363281" xlink:href="#ArialMT-73"/>
     </g>
    </g>
    <g id="line2d_20">
     <path d="M 192.78 99.070658 
L 199.78 99.070658 
" style="fill:none;stroke:#ff7f0e;stroke-linecap:square;"/>
    </g>
    <g id="line2d_21"/>
    <g id="text_11">
     <!-- Capillaries -->
     <g transform="translate(205.38 101.520658)scale(0.07 -0.07)">
      <defs>
       <path d="M 3763 1606 
L 4369 1453 
Q 4178 706 3683 314 
Q 3188 -78 2472 -78 
Q 1731 -78 1267 223 
Q 803 525 561 1097 
Q 319 1669 319 2325 
Q 319 3041 592 3573 
Q 866 4106 1370 4382 
Q 1875 4659 2481 4659 
Q 3169 4659 3637 4309 
Q 4106 3959 4291 3325 
L 3694 3184 
Q 3534 3684 3231 3912 
Q 2928 4141 2469 4141 
Q 1941 4141 1586 3887 
Q 1231 3634 1087 3207 
Q 944 2781 944 2328 
Q 944 1744 1114 1308 
Q 1284 872 1643 656 
Q 2003 441 2422 441 
Q 2931 441 3284 734 
Q 3638 1028 3763 1606 
z
" id="ArialMT-43" transform="scale(0.015625)"/>
       <path d="M 422 -1272 
L 422 3319 
L 934 3319 
L 934 2888 
Q 1116 3141 1344 3267 
Q 1572 3394 1897 3394 
Q 2322 3394 2647 3175 
Q 2972 2956 3137 2557 
Q 3303 2159 3303 1684 
Q 3303 1175 3120 767 
Q 2938 359 2589 142 
Q 2241 -75 1856 -75 
Q 1575 -75 1351 44 
Q 1128 163 984 344 
L 984 -1272 
L 422 -1272 
z
M 931 1641 
Q 931 1000 1190 694 
Q 1450 388 1819 388 
Q 2194 388 2461 705 
Q 2728 1022 2728 1688 
Q 2728 2322 2467 2637 
Q 2206 2953 1844 2953 
Q 1484 2953 1207 2617 
Q 931 2281 931 1641 
z
" id="ArialMT-70" transform="scale(0.015625)"/>
      </defs>
      <use xlink:href="#ArialMT-43"/>
      <use x="72.216797" xlink:href="#ArialMT-61"/>
      <use x="127.832031" xlink:href="#ArialMT-70"/>
      <use x="183.447266" xlink:href="#ArialMT-69"/>
      <use x="205.664062" xlink:href="#ArialMT-6c"/>
      <use x="227.880859" xlink:href="#ArialMT-6c"/>
      <use x="250.097656" xlink:href="#ArialMT-61"/>
      <use x="305.712891" xlink:href="#ArialMT-72"/>
      <use x="339.013672" xlink:href="#ArialMT-69"/>
      <use x="361.230469" xlink:href="#ArialMT-65"/>
      <use x="416.845703" xlink:href="#ArialMT-73"/>
     </g>
    </g>
    <g id="line2d_22">
     <path d="M 192.78 108.972377 
L 199.78 108.972377 
" style="fill:none;stroke:#2ca02c;stroke-linecap:square;"/>
    </g>
    <g id="line2d_23"/>
    <g id="text_12">
     <!-- Venules -->
     <g transform="translate(205.38 111.422377)scale(0.07 -0.07)">
      <use xlink:href="#ArialMT-56"/>
      <use x="61.199219" xlink:href="#ArialMT-65"/>
      <use x="116.814453" xlink:href="#ArialMT-6e"/>
      <use x="172.429688" xlink:href="#ArialMT-75"/>
      <use x="228.044922" xlink:href="#ArialMT-6c"/>
      <use x="250.261719" xlink:href="#ArialMT-65"/>
      <use x="305.876953" xlink:href="#ArialMT-73"/>
     </g>
    </g>
    <g id="line2d_24">
     <path d="M 192.78 118.874095 
L 199.78 118.874095 
" style="fill:none;stroke:#d62728;stroke-linecap:square;"/>
    </g>
    <g id="line2d_25"/>
    <g id="text_13">
     <!-- Veins -->
     <g transform="translate(205.38 121.324095)scale(0.07 -0.07)">
      <use xlink:href="#ArialMT-56"/>
      <use x="61.199219" xlink:href="#ArialMT-65"/>
      <use x="116.814453" xlink:href="#ArialMT-69"/>
      <use x="139.03125" xlink:href="#ArialMT-6e"/>
      <use x="194.646484" xlink:href="#ArialMT-73"/>
     </g>
    </g>
   </g>
  </g>
  <g id="axes_3">
   <g id="patch_8">
    <path d="M 75.6 175.661053 
L 176.4 175.661053 
L 176.4 134.166316 
L 75.6 134.166316 
z
" style="fill:#ffffff;"/>
   </g>
   <g id="matplotlib.axis_5">
    <g id="xtick_5"/>
    <g id="xtick_6"/>
   </g>
   <g id="matplotlib.axis_6">
    <g id="ytick_5">
     <g id="line2d_26">
      <g>
       <use style="stroke:#000000;stroke-width:1.5;" x="75.6" xlink:href="#m7ab4eb5bdf" y="175.661053"/>
      </g>
     </g>
     <g id="text_14">
      <!-- 0.00 -->
      <g transform="translate(51.085156 178.882068)scale(0.09 -0.09)">
       <defs>
        <path d="M 581 0 
L 581 641 
L 1222 641 
L 1222 0 
L 581 0 
z
" id="ArialMT-2e" transform="scale(0.015625)"/>
       </defs>
       <use xlink:href="#ArialMT-30"/>
       <use x="55.615234" xlink:href="#ArialMT-2e"/>
       <use x="83.398438" xlink:href="#ArialMT-30"/>
       <use x="139.013672" xlink:href="#ArialMT-30"/>
      </g>
     </g>
    </g>
    <g id="ytick_6">
     <g id="line2d_27">
      <g>
       <use style="stroke:#000000;stroke-width:1.5;" x="75.6" xlink:href="#m7ab4eb5bdf" y="134.166316"/>
      </g>
     </g>
     <g id="text_15">
      <!-- 0.12 -->
      <g transform="translate(51.085156 137.387331)scale(0.09 -0.09)">
       <use xlink:href="#ArialMT-30"/>
       <use x="55.615234" xlink:href="#ArialMT-2e"/>
       <use x="83.398438" xlink:href="#ArialMT-31"/>
       <use x="139.013672" xlink:href="#ArialMT-32"/>
      </g>
     </g>
    </g>
    <g id="text_16">
     <!-- Ventricular -->
     <g transform="translate(3.939609 147.60259)scale(0.09 -0.09)">
      <use xlink:href="#ArialMT-56"/>
      <use x="61.199219" xlink:href="#ArialMT-65"/>
      <use x="116.814453" xlink:href="#ArialMT-6e"/>
      <use x="172.429688" xlink:href="#ArialMT-74"/>
      <use x="200.212891" xlink:href="#ArialMT-72"/>
      <use x="233.513672" xlink:href="#ArialMT-69"/>
      <use x="255.730469" xlink:href="#ArialMT-63"/>
      <use x="305.730469" xlink:href="#ArialMT-75"/>
      <use x="361.345703" xlink:href="#ArialMT-6c"/>
      <use x="383.5625" xlink:href="#ArialMT-61"/>
      <use x="439.177734" xlink:href="#ArialMT-72"/>
     </g>
     <!-- volume -->
     <g transform="translate(10.694531 157.121778)scale(0.09 -0.09)">
      <defs>
       <path d="M 1344 0 
L 81 3319 
L 675 3319 
L 1388 1331 
Q 1503 1009 1600 663 
Q 1675 925 1809 1294 
L 2547 3319 
L 3125 3319 
L 1869 0 
L 1344 0 
z
" id="ArialMT-76" transform="scale(0.015625)"/>
      </defs>
      <use xlink:href="#ArialMT-76"/>
      <use x="50" xlink:href="#ArialMT-6f"/>
      <use x="105.615234" xlink:href="#ArialMT-6c"/>
      <use x="127.832031" xlink:href="#ArialMT-75"/>
      <use x="183.447266" xlink:href="#ArialMT-6d"/>
      <use x="266.748047" xlink:href="#ArialMT-65"/>
     </g>
     <!-- (liters) -->
     <g transform="translate(12.702656 166.77259)scale(0.09 -0.09)">
      <use xlink:href="#ArialMT-28"/>
      <use x="33.300781" xlink:href="#ArialMT-6c"/>
      <use x="55.517578" xlink:href="#ArialMT-69"/>
      <use x="77.734375" xlink:href="#ArialMT-74"/>
      <use x="105.517578" xlink:href="#ArialMT-65"/>
      <use x="161.132812" xlink:href="#ArialMT-72"/>
      <use x="194.433594" xlink:href="#ArialMT-73"/>
      <use x="244.433594" xlink:href="#ArialMT-29"/>
     </g>
    </g>
   </g>
   <g id="line2d_28">
    <path clip-path="url(#pa400823e55)" d="M 75.6 139.385316 
L 76.5072 137.556782 
L 77.364 136.296379 
L 78.1704 135.483774 
L 78.9768 134.992407 
L 79.7328 134.78355 
L 80.7912 134.754849 
L 102.06 134.834727 
L 102.4128 135.711303 
L 105.9408 144.625583 
L 107.2512 147.059457 
L 108.5616 149.033949 
L 109.9224 150.681601 
L 111.3336 152.041695 
L 112.8456 153.189924 
L 114.5088 154.168612 
L 116.3232 154.97852 
L 118.3896 155.656129 
L 120.7584 156.196529 
L 123.5304 156.595258 
L 126.756 156.826592 
L 130.5864 156.867153 
L 155.3832 156.763312 
L 156.6936 156.454453 
L 157.248 156.138436 
L 157.5504 155.755128 
L 157.8024 155.065105 
L 158.4576 152.075721 
L 159.8184 146.229562 
L 160.9272 142.373456 
L 161.9352 139.622182 
L 162.8424 137.734172 
L 163.6992 136.422938 
L 164.5056 135.567109 
L 165.2616 135.062256 
L 166.0176 134.808101 
L 166.8744 134.754849 
L 176.4 134.754849 
L 176.4 134.754849 
" style="fill:none;stroke:#1f77b4;stroke-linecap:square;"/>
   </g>
   <g id="patch_9">
    <path d="M 75.6 175.661053 
L 75.6 134.166316 
" style="fill:none;stroke:#000000;stroke-linecap:square;stroke-linejoin:miter;stroke-width:1.5;"/>
   </g>
  </g>
  <g id="axes_4">
   <g id="patch_10">
    <path d="M 75.6 229.604211 
L 176.4 229.604211 
L 176.4 188.109474 
L 75.6 188.109474 
z
" style="fill:#ffffff;"/>
   </g>
   <g id="matplotlib.axis_7">
    <g id="xtick_7"/>
    <g id="xtick_8"/>
   </g>
   <g id="matplotlib.axis_8">
    <g id="ytick_7">
     <g id="line2d_29">
      <g>
       <use style="stroke:#000000;stroke-width:1.5;" x="75.6" xlink:href="#m7ab4eb5bdf" y="229.604211"/>
      </g>
     </g>
     <g id="text_17">
      <!-- 0 -->
      <g transform="translate(63.595156 232.825226)scale(0.09 -0.09)">
       <use xlink:href="#ArialMT-30"/>
      </g>
     </g>
    </g>
    <g id="ytick_8">
     <g id="line2d_30">
      <g>
       <use style="stroke:#000000;stroke-width:1.5;" x="75.6" xlink:href="#m7ab4eb5bdf" y="188.109474"/>
      </g>
     </g>
     <g id="text_18">
      <!-- 1 -->
      <g transform="translate(63.595156 191.330489)scale(0.09 -0.09)">
       <use xlink:href="#ArialMT-31"/>
      </g>
     </g>
    </g>
    <g id="text_19">
     <!-- Activation -->
     <g transform="translate(5.691094 211.183483)scale(0.09 -0.09)">
      <use xlink:href="#ArialMT-41"/>
      <use x="66.699219" xlink:href="#ArialMT-63"/>
      <use x="116.699219" xlink:href="#ArialMT-74"/>
      <use x="144.482422" xlink:href="#ArialMT-69"/>
      <use x="166.699219" xlink:href="#ArialMT-76"/>
      <use x="216.699219" xlink:href="#ArialMT-61"/>
      <use x="272.314453" xlink:href="#ArialMT-74"/>
      <use x="300.097656" xlink:href="#ArialMT-69"/>
      <use x="322.314453" xlink:href="#ArialMT-6f"/>
      <use x="377.929688" xlink:href="#ArialMT-6e"/>
     </g>
    </g>
   </g>
   <g id="line2d_31">
    <path clip-path="url(#p31bfe62612)" d="M 75.6 229.604211 
L 100.4976 229.604211 
L 100.6488 188.109474 
L 100.8 188.109474 
L 100.9512 229.604211 
L 176.4 229.604211 
L 176.4 229.604211 
" style="fill:none;stroke:#1f77b4;stroke-linecap:square;"/>
   </g>
   <g id="patch_11">
    <path d="M 75.6 229.604211 
L 75.6 188.109474 
" style="fill:none;stroke:#000000;stroke-linecap:square;stroke-linejoin:miter;stroke-width:1.5;"/>
   </g>
  </g>
  <g id="axes_5">
   <g id="patch_12">
    <path d="M 75.6 283.547368 
L 176.4 283.547368 
L 176.4 242.052632 
L 75.6 242.052632 
z
" style="fill:#ffffff;"/>
   </g>
   <g id="matplotlib.axis_9">
    <g id="xtick_9"/>
    <g id="xtick_10"/>
   </g>
   <g id="matplotlib.axis_10">
    <g id="ytick_9">
     <g id="line2d_32">
      <g>
       <use style="stroke:#000000;stroke-width:1.5;" x="75.6" xlink:href="#m7ab4eb5bdf" y="283.547368"/>
      </g>
     </g>
     <g id="text_20">
      <!-- 0.0 -->
      <g transform="translate(56.09 286.768384)scale(0.09 -0.09)">
       <use xlink:href="#ArialMT-30"/>
       <use x="55.615234" xlink:href="#ArialMT-2e"/>
       <use x="83.398438" xlink:href="#ArialMT-30"/>
      </g>
     </g>
    </g>
    <g id="ytick_10">
     <g id="line2d_33">
      <g>
       <use style="stroke:#000000;stroke-width:1.5;" x="75.6" xlink:href="#m7ab4eb5bdf" y="242.052632"/>
      </g>
     </g>
     <g id="text_21">
      <!-- 1.2 -->
      <g transform="translate(56.09 245.273647)scale(0.09 -0.09)">
       <use xlink:href="#ArialMT-31"/>
       <use x="55.615234" xlink:href="#ArialMT-2e"/>
       <use x="83.398438" xlink:href="#ArialMT-32"/>
      </g>
     </g>
    </g>
    <g id="text_22">
     <!-- Ca$\mathregular{_{myo}}$ -->
     <g transform="translate(13.185 259.128)scale(0.09 -0.09)">
      <defs>
       <path d="M 397 -1278 
L 334 -750 
Q 519 -800 656 -800 
Q 844 -800 956 -737 
Q 1069 -675 1141 -563 
Q 1194 -478 1313 -144 
Q 1328 -97 1363 -6 
L 103 3319 
L 709 3319 
L 1400 1397 
Q 1534 1031 1641 628 
Q 1738 1016 1872 1384 
L 2581 3319 
L 3144 3319 
L 1881 -56 
Q 1678 -603 1566 -809 
Q 1416 -1088 1222 -1217 
Q 1028 -1347 759 -1347 
Q 597 -1347 397 -1278 
z
" id="ArialMT-79" transform="scale(0.015625)"/>
      </defs>
      <use transform="translate(0 0.203125)" xlink:href="#ArialMT-43"/>
      <use transform="translate(72.216797 0.203125)" xlink:href="#ArialMT-61"/>
      <use transform="translate(129.574375 -29.665625)scale(0.7)" xlink:href="#ArialMT-6d"/>
      <use transform="translate(187.884922 -29.665625)scale(0.7)" xlink:href="#ArialMT-79"/>
      <use transform="translate(222.884922 -29.665625)scale(0.7)" xlink:href="#ArialMT-6f"/>
     </g>
     <!-- ($\mathregular{\mu}$M) -->
     <g transform="translate(15.84 271.062)scale(0.09 -0.09)">
      <defs>
       <path d="M 3181 3319 
L 3181 0 
L 2678 0 
L 2678 394 
Q 2516 144 2356 50 
Q 2138 -78 1847 -78 
Q 1588 -78 1388 25 
Q 1238 103 1056 334 
L 1056 -1272 
L 500 -1272 
L 500 3319 
L 1056 3319 
L 1056 1913 
Q 1056 1147 1137 920 
Q 1219 694 1401 562 
Q 1584 431 1822 431 
Q 2072 431 2269 568 
Q 2466 706 2547 923 
Q 2628 1141 2628 1903 
L 2628 3319 
L 3181 3319 
z
" id="ArialMT-3bc" transform="scale(0.015625)"/>
       <path d="M 475 0 
L 475 4581 
L 1388 4581 
L 2472 1338 
Q 2622 884 2691 659 
Q 2769 909 2934 1394 
L 4031 4581 
L 4847 4581 
L 4847 0 
L 4263 0 
L 4263 3834 
L 2931 0 
L 2384 0 
L 1059 3900 
L 1059 0 
L 475 0 
z
" id="ArialMT-4d" transform="scale(0.015625)"/>
      </defs>
      <use transform="translate(0 0.203125)" xlink:href="#ArialMT-28"/>
      <use transform="translate(33.300781 0.203125)" xlink:href="#ArialMT-3bc"/>
      <use transform="translate(90.917969 0.203125)" xlink:href="#ArialMT-4d"/>
      <use transform="translate(174.21875 0.203125)" xlink:href="#ArialMT-29"/>
     </g>
    </g>
   </g>
   <g id="line2d_34">
    <path clip-path="url(#p5fce71ec2c)" d="M 75.6 280.672056 
L 88.7544 280.854844 
L 100.4976 280.915043 
L 101.7576 247.209736 
L 103.5216 251.618344 
L 105.2856 255.451075 
L 107.1 258.87159 
L 108.9144 261.833346 
L 110.7792 264.463939 
L 112.6944 266.789408 
L 114.66 268.835513 
L 116.7264 270.668682 
L 118.8936 272.294134 
L 121.212 273.749666 
L 123.6816 275.032061 
L 126.3528 276.163449 
L 129.276 277.15545 
L 132.5016 278.013457 
L 136.1808 278.758184 
L 140.4144 279.384893 
L 145.4544 279.902298 
L 151.8048 280.318729 
L 160.1208 280.625745 
L 172.1664 280.827907 
L 176.4 280.863931 
L 176.4 280.863931 
" style="fill:none;stroke:#1f77b4;stroke-linecap:square;"/>
   </g>
   <g id="patch_13">
    <path d="M 75.6 283.547368 
L 75.6 242.052632 
" style="fill:none;stroke:#000000;stroke-linecap:square;stroke-linejoin:miter;stroke-width:1.5;"/>
   </g>
  </g>
  <g id="axes_6">
   <g id="patch_14">
    <path d="M 75.6 337.490526 
L 176.4 337.490526 
L 176.4 295.995789 
L 75.6 295.995789 
z
" style="fill:#ffffff;"/>
   </g>
   <g id="matplotlib.axis_11">
    <g id="xtick_11"/>
    <g id="xtick_12"/>
   </g>
   <g id="matplotlib.axis_12">
    <g id="ytick_11">
     <g id="line2d_35">
      <g>
       <use style="stroke:#000000;stroke-width:1.5;" x="75.6" xlink:href="#m7ab4eb5bdf" y="337.490526"/>
      </g>
     </g>
     <g id="text_23">
      <!-- 900 -->
      <g transform="translate(53.585469 340.711542)scale(0.09 -0.09)">
       <defs>
        <path d="M 350 1059 
L 891 1109 
Q 959 728 1153 556 
Q 1347 384 1650 384 
Q 1909 384 2104 503 
Q 2300 622 2425 820 
Q 2550 1019 2634 1356 
Q 2719 1694 2719 2044 
Q 2719 2081 2716 2156 
Q 2547 1888 2255 1720 
Q 1963 1553 1622 1553 
Q 1053 1553 659 1965 
Q 266 2378 266 3053 
Q 266 3750 677 4175 
Q 1088 4600 1706 4600 
Q 2153 4600 2523 4359 
Q 2894 4119 3086 3673 
Q 3278 3228 3278 2384 
Q 3278 1506 3087 986 
Q 2897 466 2520 194 
Q 2144 -78 1638 -78 
Q 1100 -78 759 220 
Q 419 519 350 1059 
z
M 2653 3081 
Q 2653 3566 2395 3850 
Q 2138 4134 1775 4134 
Q 1400 4134 1122 3828 
Q 844 3522 844 3034 
Q 844 2597 1108 2323 
Q 1372 2050 1759 2050 
Q 2150 2050 2401 2323 
Q 2653 2597 2653 3081 
z
" id="ArialMT-39" transform="scale(0.015625)"/>
       </defs>
       <use xlink:href="#ArialMT-39"/>
       <use x="55.615234" xlink:href="#ArialMT-30"/>
       <use x="111.230469" xlink:href="#ArialMT-30"/>
      </g>
     </g>
    </g>
    <g id="ytick_12">
     <g id="line2d_36">
      <g>
       <use style="stroke:#000000;stroke-width:1.5;" x="75.6" xlink:href="#m7ab4eb5bdf" y="295.995789"/>
      </g>
     </g>
     <g id="text_24">
      <!-- 1200 -->
      <g transform="translate(48.580625 299.216805)scale(0.09 -0.09)">
       <use xlink:href="#ArialMT-31"/>
       <use x="55.615234" xlink:href="#ArialMT-32"/>
       <use x="111.230469" xlink:href="#ArialMT-30"/>
       <use x="166.845703" xlink:href="#ArialMT-30"/>
      </g>
     </g>
    </g>
    <g id="text_25">
     <!-- Half- -->
     <g transform="translate(15.699375 304.619736)scale(0.09 -0.09)">
      <defs>
       <path d="M 556 0 
L 556 2881 
L 59 2881 
L 59 3319 
L 556 3319 
L 556 3672 
Q 556 4006 616 4169 
Q 697 4388 901 4523 
Q 1106 4659 1475 4659 
Q 1713 4659 2000 4603 
L 1916 4113 
Q 1741 4144 1584 4144 
Q 1328 4144 1222 4034 
Q 1116 3925 1116 3625 
L 1116 3319 
L 1763 3319 
L 1763 2881 
L 1116 2881 
L 1116 0 
L 556 0 
z
" id="ArialMT-66" transform="scale(0.015625)"/>
       <path d="M 203 1375 
L 203 1941 
L 1931 1941 
L 1931 1375 
L 203 1375 
z
" id="ArialMT-2d" transform="scale(0.015625)"/>
      </defs>
      <use xlink:href="#ArialMT-48"/>
      <use x="72.216797" xlink:href="#ArialMT-61"/>
      <use x="127.832031" xlink:href="#ArialMT-6c"/>
      <use x="150.048828" xlink:href="#ArialMT-66"/>
      <use x="177.832031" xlink:href="#ArialMT-2d"/>
     </g>
     <!-- sarcomere -->
     <g transform="translate(3.945234 314.138924)scale(0.09 -0.09)">
      <use xlink:href="#ArialMT-73"/>
      <use x="50" xlink:href="#ArialMT-61"/>
      <use x="105.615234" xlink:href="#ArialMT-72"/>
      <use x="138.916016" xlink:href="#ArialMT-63"/>
      <use x="188.916016" xlink:href="#ArialMT-6f"/>
      <use x="244.53125" xlink:href="#ArialMT-6d"/>
      <use x="327.832031" xlink:href="#ArialMT-65"/>
      <use x="383.447266" xlink:href="#ArialMT-72"/>
      <use x="416.748047" xlink:href="#ArialMT-65"/>
     </g>
     <!-- length -->
     <g transform="translate(12.940313 323.658111)scale(0.09 -0.09)">
      <defs>
       <path d="M 422 0 
L 422 4581 
L 984 4581 
L 984 2938 
Q 1378 3394 1978 3394 
Q 2347 3394 2619 3248 
Q 2891 3103 3008 2847 
Q 3125 2591 3125 2103 
L 3125 0 
L 2563 0 
L 2563 2103 
Q 2563 2525 2380 2717 
Q 2197 2909 1863 2909 
Q 1613 2909 1392 2779 
Q 1172 2650 1078 2428 
Q 984 2206 984 1816 
L 984 0 
L 422 0 
z
" id="ArialMT-68" transform="scale(0.015625)"/>
      </defs>
      <use xlink:href="#ArialMT-6c"/>
      <use x="22.216797" xlink:href="#ArialMT-65"/>
      <use x="77.832031" xlink:href="#ArialMT-6e"/>
      <use x="133.447266" xlink:href="#ArialMT-67"/>
      <use x="189.0625" xlink:href="#ArialMT-74"/>
      <use x="216.845703" xlink:href="#ArialMT-68"/>
     </g>
     <!-- (nm) -->
     <g transform="translate(15.9525 333.414392)scale(0.09 -0.09)">
      <use xlink:href="#ArialMT-28"/>
      <use x="33.300781" xlink:href="#ArialMT-6e"/>
      <use x="88.916016" xlink:href="#ArialMT-6d"/>
      <use x="172.216797" xlink:href="#ArialMT-29"/>
     </g>
    </g>
   </g>
   <g id="line2d_37">
    <path clip-path="url(#p179fcae8b2)" d="M 75.6 315.282543 
L 76.5072 313.509335 
L 77.364 312.314286 
L 78.1704 311.554933 
L 78.9768 311.099874 
L 79.7832 310.900699 
L 81.3456 310.881335 
L 102.06 310.954642 
L 102.4128 311.766556 
L 103.9752 315.875918 
L 105.6888 320.086251 
L 107.1504 323.113983 
L 108.5616 325.548894 
L 109.9728 327.555718 
L 111.4344 329.250916 
L 112.9464 330.666302 
L 114.5592 331.869649 
L 116.2728 332.871747 
L 118.1376 333.70676 
L 120.2544 334.402626 
L 122.6232 334.935419 
L 125.244 335.291029 
L 128.0664 335.45272 
L 134.2152 335.460327 
L 155.1816 335.356314 
L 156.4416 335.007066 
L 157.0968 334.612728 
L 157.4496 334.154626 
L 157.7016 333.460419 
L 158.0544 331.584719 
L 159.264 324.905034 
L 160.272 320.56344 
L 161.2296 317.366962 
L 162.1368 315.057088 
L 163.044 313.346122 
L 163.9008 312.202251 
L 164.6568 311.518971 
L 165.4128 311.099874 
L 166.2192 310.900699 
L 167.7816 310.881335 
L 176.4 310.881335 
L 176.4 310.881335 
" style="fill:none;stroke:#1f77b4;stroke-linecap:square;"/>
   </g>
   <g id="patch_15">
    <path d="M 75.6 337.490526 
L 75.6 295.995789 
" style="fill:none;stroke:#000000;stroke-linecap:square;stroke-linejoin:miter;stroke-width:1.5;"/>
   </g>
  </g>
  <g id="axes_7">
   <g id="patch_16">
    <path d="M 75.6 391.433684 
L 176.4 391.433684 
L 176.4 349.938947 
L 75.6 349.938947 
z
" style="fill:#ffffff;"/>
   </g>
   <g id="matplotlib.axis_13">
    <g id="xtick_13"/>
    <g id="xtick_14"/>
   </g>
   <g id="matplotlib.axis_14">
    <g id="ytick_13">
     <g id="line2d_38">
      <g>
       <use style="stroke:#000000;stroke-width:1.5;" x="75.6" xlink:href="#m7ab4eb5bdf" y="391.433684"/>
      </g>
     </g>
     <g id="text_26">
      <!-- −0.12 -->
      <g transform="translate(45.828594 394.6547)scale(0.09 -0.09)">
       <defs>
        <path d="M 3381 1997 
L 356 1997 
L 356 2522 
L 3381 2522 
L 3381 1997 
z
" id="ArialMT-2212" transform="scale(0.015625)"/>
       </defs>
       <use xlink:href="#ArialMT-2212"/>
       <use x="58.398438" xlink:href="#ArialMT-30"/>
       <use x="114.013672" xlink:href="#ArialMT-2e"/>
       <use x="141.796875" xlink:href="#ArialMT-31"/>
       <use x="197.412109" xlink:href="#ArialMT-32"/>
      </g>
     </g>
    </g>
    <g id="ytick_14">
     <g id="line2d_39">
      <g>
       <use style="stroke:#000000;stroke-width:1.5;" x="75.6" xlink:href="#m7ab4eb5bdf" y="349.938947"/>
      </g>
     </g>
     <g id="text_27">
      <!-- 22.00 -->
      <g transform="translate(46.080312 353.159963)scale(0.09 -0.09)">
       <use xlink:href="#ArialMT-32"/>
       <use x="55.615234" xlink:href="#ArialMT-32"/>
       <use x="111.230469" xlink:href="#ArialMT-2e"/>
       <use x="139.013672" xlink:href="#ArialMT-30"/>
       <use x="194.628906" xlink:href="#ArialMT-30"/>
      </g>
     </g>
    </g>
    <g id="text_28">
     <!-- Wall -->
     <g transform="translate(16.619063 360.729363)scale(0.09 -0.09)">
      <defs>
       <path d="M 1294 0 
L 78 4581 
L 700 4581 
L 1397 1578 
Q 1509 1106 1591 641 
Q 1766 1375 1797 1488 
L 2669 4581 
L 3400 4581 
L 4056 2263 
Q 4303 1400 4413 641 
Q 4500 1075 4641 1638 
L 5359 4581 
L 5969 4581 
L 4713 0 
L 4128 0 
L 3163 3491 
Q 3041 3928 3019 4028 
Q 2947 3713 2884 3491 
L 1913 0 
L 1294 0 
z
" id="ArialMT-57" transform="scale(0.015625)"/>
      </defs>
      <use xlink:href="#ArialMT-57"/>
      <use x="90.634766" xlink:href="#ArialMT-61"/>
      <use x="146.25" xlink:href="#ArialMT-6c"/>
      <use x="168.466797" xlink:href="#ArialMT-6c"/>
     </g>
     <!-- stress -->
     <g transform="translate(13.199063 370.24855)scale(0.09 -0.09)">
      <use xlink:href="#ArialMT-73"/>
      <use x="50" xlink:href="#ArialMT-74"/>
      <use x="77.783203" xlink:href="#ArialMT-72"/>
      <use x="111.083984" xlink:href="#ArialMT-65"/>
      <use x="166.699219" xlink:href="#ArialMT-73"/>
      <use x="216.699219" xlink:href="#ArialMT-73"/>
     </g>
     <!-- (kN m$\mathregular{^{-2}}$) -->
     <g transform="translate(7.785 385.1053)scale(0.09 -0.09)">
      <defs>
       <path d="M 425 0 
L 425 4581 
L 988 4581 
L 988 1969 
L 2319 3319 
L 3047 3319 
L 1778 2088 
L 3175 0 
L 2481 0 
L 1384 1697 
L 988 1316 
L 988 0 
L 425 0 
z
" id="ArialMT-6b" transform="scale(0.015625)"/>
       <path d="M 488 0 
L 488 4581 
L 1109 4581 
L 3516 984 
L 3516 4581 
L 4097 4581 
L 4097 0 
L 3475 0 
L 1069 3600 
L 1069 0 
L 488 0 
z
" id="ArialMT-4e" transform="scale(0.015625)"/>
      </defs>
      <use transform="translate(0 0.99375)" xlink:href="#ArialMT-28"/>
      <use transform="translate(33.300781 0.99375)" xlink:href="#ArialMT-6b"/>
      <use transform="translate(83.300781 0.99375)" xlink:href="#ArialMT-4e"/>
      <use transform="translate(155.517578 0.99375)" xlink:href="#ArialMT-20"/>
      <use transform="translate(183.300781 0.99375)" xlink:href="#ArialMT-6d"/>
      <use transform="translate(268.343906 70.6875)scale(0.7)" xlink:href="#ArialMT-2212"/>
      <use transform="translate(309.222812 70.6875)scale(0.7)" xlink:href="#ArialMT-32"/>
      <use transform="translate(353.131602 0.99375)" xlink:href="#ArialMT-29"/>
     </g>
    </g>
   </g>
   <g id="line2d_40">
    <path clip-path="url(#pa7393df24d)" d="M 75.6 389.57441 
L 78.372 388.321767 
L 80.0352 387.811955 
L 84.7224 386.910083 
L 87.9984 386.592456 
L 92.484 386.396201 
L 99.9432 386.320358 
L 100.6992 386.241214 
L 100.9008 385.761174 
L 101.1528 384.308745 
L 101.4048 381.379464 
L 101.6568 375.710987 
L 101.9088 364.801079 
L 102.2112 353.342941 
L 102.3624 352.73459 
L 102.564 352.570449 
L 103.32 351.277396 
L 103.572 351.307974 
L 105.2856 352.337276 
L 106.3944 353.577616 
L 110.7288 358.651341 
L 112.4928 360.25129 
L 114.2568 361.565352 
L 116.2224 362.760296 
L 118.5408 363.894648 
L 121.0608 364.882493 
L 123.8832 365.766038 
L 127.7136 366.734374 
L 129.5784 367.263375 
L 130.4856 367.874916 
L 131.544 368.87683 
L 132.9048 370.491411 
L 134.9712 373.328097 
L 139.1544 379.106802 
L 141.2208 381.55486 
L 143.136 383.487217 
L 145.0008 385.055332 
L 146.8656 386.336266 
L 148.8312 387.412765 
L 150.8976 388.289539 
L 153.1656 389.009956 
L 154.8288 389.349635 
L 157.1472 389.498437 
L 157.4496 389.698347 
L 157.6512 390.058329 
L 158.0544 390.971025 
L 158.3568 391.013044 
L 159.264 390.801857 
L 160.7256 390.214185 
L 165.6648 388.026839 
L 167.5296 387.572179 
L 170.4024 387.016596 
L 173.4768 386.664978 
L 176.4 386.482342 
L 176.4 386.482342 
" style="fill:none;stroke:#1f77b4;stroke-linecap:square;"/>
   </g>
   <g id="line2d_41">
    <path clip-path="url(#pa7393df24d)" d="M 75.6 390.875128 
L 78.12 390.479559 
L 85.68 389.039014 
L 89.2584 388.76035 
L 94.3992 388.6021 
L 100.7496 388.411115 
L 100.9512 387.800043 
L 101.2032 386.111403 
L 101.4552 382.768281 
L 101.7072 376.293545 
L 102.3624 354.783064 
L 102.6144 354.371681 
L 103.2192 352.877533 
L 103.572 352.692757 
L 104.9328 352.882785 
L 105.588 353.331874 
L 106.6968 354.408823 
L 111.7368 359.640875 
L 113.6016 361.085124 
L 115.5168 362.286821 
L 117.6336 363.361519 
L 120.204 364.407329 
L 123.0264 365.320701 
L 127.1088 366.376078 
L 129.6288 367.068658 
L 130.536 367.694643 
L 131.5944 368.709313 
L 133.0056 370.400055 
L 135.1728 373.394279 
L 139.104 378.821104 
L 141.2208 381.333242 
L 143.136 383.265599 
L 145.0008 384.833714 
L 146.8656 386.114648 
L 148.8312 387.191148 
L 150.8976 388.067921 
L 153.1656 388.788338 
L 154.8288 389.130539 
L 157.0968 389.306666 
L 157.4496 389.547287 
L 157.6512 389.932421 
L 158.1048 390.97102 
L 158.508 391.05654 
L 159.9696 391.04667 
L 162.6408 390.801267 
L 165.1104 390.361364 
L 170.9064 389.187678 
L 174.132 388.857559 
L 176.4 388.726059 
L 176.4 388.726059 
" style="fill:none;stroke:#ff7f0e;stroke-linecap:square;"/>
   </g>
   <g id="line2d_42">
    <path clip-path="url(#pa7393df24d)" d="M 75.6 389.90786 
L 77.5656 389.268792 
L 79.0776 389.012695 
L 80.7912 388.96486 
L 102.2112 389.065633 
L 103.7736 389.917573 
L 105.1344 390.406566 
L 106.848 390.771344 
L 109.2672 391.037276 
L 113.1984 391.219158 
L 123.5808 391.409247 
L 139.9104 391.430195 
L 157.7016 391.325819 
L 159.516 390.860695 
L 161.784 390.005764 
L 163.9008 389.294023 
L 165.4128 389.022581 
L 167.076 388.96486 
L 176.4 388.96486 
L 176.4 388.96486 
" style="fill:none;stroke:#2ca02c;stroke-linecap:square;"/>
   </g>
   <g id="patch_17">
    <path d="M 75.6 391.433684 
L 75.6 349.938947 
" style="fill:none;stroke:#000000;stroke-linecap:square;stroke-linejoin:miter;stroke-width:1.5;"/>
   </g>
   <g id="legend_3">
    <g id="patch_18">
     <path d="M 191.38 385.244104 
L 231.289844 385.244104 
Q 232.689844 385.244104 232.689844 383.844104 
L 232.689844 354.838947 
Q 232.689844 353.438947 231.289844 353.438947 
L 191.38 353.438947 
Q 189.98 353.438947 189.98 354.838947 
L 189.98 383.844104 
Q 189.98 385.244104 191.38 385.244104 
z
" style="fill:#ffffff;opacity:0.8;stroke:#000000;stroke-linejoin:miter;"/>
    </g>
    <g id="line2d_43">
     <path d="M 192.78 358.799416 
L 199.78 358.799416 
" style="fill:none;stroke:#1f77b4;stroke-linecap:square;"/>
    </g>
    <g id="line2d_44"/>
    <g id="text_29">
     <!-- Total -->
     <g transform="translate(205.38 361.249416)scale(0.07 -0.07)">
      <defs>
       <path d="M 1659 0 
L 1659 4041 
L 150 4041 
L 150 4581 
L 3781 4581 
L 3781 4041 
L 2266 4041 
L 2266 0 
L 1659 0 
z
" id="ArialMT-54" transform="scale(0.015625)"/>
      </defs>
      <use xlink:href="#ArialMT-54"/>
      <use x="49.958984" xlink:href="#ArialMT-6f"/>
      <use x="105.574219" xlink:href="#ArialMT-74"/>
      <use x="133.357422" xlink:href="#ArialMT-61"/>
      <use x="188.972656" xlink:href="#ArialMT-6c"/>
     </g>
    </g>
    <g id="line2d_45">
     <path d="M 192.78 368.701135 
L 199.78 368.701135 
" style="fill:none;stroke:#ff7f0e;stroke-linecap:square;"/>
    </g>
    <g id="line2d_46"/>
    <g id="text_30">
     <!-- Active -->
     <g transform="translate(205.38 371.151135)scale(0.07 -0.07)">
      <use xlink:href="#ArialMT-41"/>
      <use x="66.699219" xlink:href="#ArialMT-63"/>
      <use x="116.699219" xlink:href="#ArialMT-74"/>
      <use x="144.482422" xlink:href="#ArialMT-69"/>
      <use x="166.699219" xlink:href="#ArialMT-76"/>
      <use x="216.699219" xlink:href="#ArialMT-65"/>
     </g>
    </g>
    <g id="line2d_47">
     <path d="M 192.78 378.602854 
L 199.78 378.602854 
" style="fill:none;stroke:#2ca02c;stroke-linecap:square;"/>
    </g>
    <g id="line2d_48"/>
    <g id="text_31">
     <!-- Passive -->
     <g transform="translate(205.38 381.052854)scale(0.07 -0.07)">
      <use xlink:href="#ArialMT-50"/>
      <use x="66.699219" xlink:href="#ArialMT-61"/>
      <use x="122.314453" xlink:href="#ArialMT-73"/>
      <use x="172.314453" xlink:href="#ArialMT-73"/>
      <use x="222.314453" xlink:href="#ArialMT-69"/>
      <use x="244.53125" xlink:href="#ArialMT-76"/>
      <use x="294.53125" xlink:href="#ArialMT-65"/>
     </g>
    </g>
   </g>
  </g>
  <g id="axes_8">
   <g id="patch_19">
    <path d="M 75.6 445.376842 
L 176.4 445.376842 
L 176.4 403.882105 
L 75.6 403.882105 
z
" style="fill:#ffffff;"/>
   </g>
   <g id="matplotlib.axis_15">
    <g id="xtick_15"/>
    <g id="xtick_16"/>
   </g>
   <g id="matplotlib.axis_16">
    <g id="ytick_15">
     <g id="line2d_49">
      <g>
       <use style="stroke:#000000;stroke-width:1.5;" x="75.6" xlink:href="#m7ab4eb5bdf" y="445.376842"/>
      </g>
     </g>
     <g id="text_32">
      <!-- 0 -->
      <g transform="translate(63.595156 448.597858)scale(0.09 -0.09)">
       <use xlink:href="#ArialMT-30"/>
      </g>
     </g>
    </g>
    <g id="ytick_16">
     <g id="line2d_50">
      <g>
       <use style="stroke:#000000;stroke-width:1.5;" x="75.6" xlink:href="#m7ab4eb5bdf" y="403.882105"/>
      </g>
     </g>
     <g id="text_33">
      <!-- 1 -->
      <g transform="translate(63.595156 407.103121)scale(0.09 -0.09)">
       <use xlink:href="#ArialMT-31"/>
      </g>
     </g>
    </g>
    <g id="text_34">
     <!-- Thin -->
     <g transform="translate(16.446797 422.196521)scale(0.09 -0.09)">
      <use xlink:href="#ArialMT-54"/>
      <use x="61.083984" xlink:href="#ArialMT-68"/>
      <use x="116.699219" xlink:href="#ArialMT-69"/>
      <use x="138.916016" xlink:href="#ArialMT-6e"/>
     </g>
     <!-- filament -->
     <g transform="translate(9.444375 431.715708)scale(0.09 -0.09)">
      <use xlink:href="#ArialMT-66"/>
      <use x="27.783203" xlink:href="#ArialMT-69"/>
      <use x="50" xlink:href="#ArialMT-6c"/>
      <use x="72.216797" xlink:href="#ArialMT-61"/>
      <use x="127.832031" xlink:href="#ArialMT-6d"/>
      <use x="211.132812" xlink:href="#ArialMT-65"/>
      <use x="266.748047" xlink:href="#ArialMT-6e"/>
      <use x="322.363281" xlink:href="#ArialMT-74"/>
     </g>
    </g>
   </g>
   <g id="line2d_51">
    <path clip-path="url(#p9ec501127d)" d="M 75.6 404.514278 
L 100.548 404.623492 
L 100.6992 405.274793 
L 101.052 408.274904 
L 101.4048 413.306058 
L 102.312 428.630687 
L 102.6144 429.932833 
L 102.8664 430.21396 
L 103.1184 430.099683 
L 103.5216 429.616311 
L 104.2776 428.272338 
L 105.4368 425.787094 
L 107.6544 420.698719 
L 109.0656 418.043844 
L 110.376 416.030187 
L 111.7368 414.344007 
L 113.148 412.948249 
L 114.66 411.760462 
L 116.3736 410.702139 
L 118.2888 409.78191 
L 120.5568 408.944588 
L 123.2784 408.185732 
L 126.6552 407.482811 
L 132.3 406.577894 
L 140.0112 405.469486 
L 145.0008 405.004496 
L 150.7968 404.695651 
L 159.516 404.481372 
L 167.2776 404.561955 
L 176.4 404.62399 
L 176.4 404.62399 
" style="fill:none;stroke:#1f77b4;stroke-linecap:square;"/>
   </g>
   <g id="line2d_52">
    <path clip-path="url(#p9ec501127d)" d="M 75.6 444.744657 
L 100.548 444.635447 
L 100.6992 443.984167 
L 101.052 440.984043 
L 101.4048 435.952889 
L 102.312 420.628261 
L 102.6144 419.326114 
L 102.8664 419.044988 
L 103.1184 419.159264 
L 103.5216 419.642636 
L 104.2776 420.986609 
L 105.4368 423.471854 
L 107.6544 428.560229 
L 109.0656 431.215103 
L 110.376 433.22876 
L 111.7368 434.91494 
L 113.148 436.310699 
L 114.66 437.498485 
L 116.3736 438.556809 
L 118.2888 439.477037 
L 120.5568 440.31436 
L 123.2784 441.073215 
L 126.6552 441.776157 
L 132.3 442.681033 
L 139.9104 443.777772 
L 144.9 444.247131 
L 150.696 444.559491 
L 159.4656 444.778803 
L 167.2272 444.697801 
L 176.4 444.634941 
L 176.4 444.634941 
" style="fill:none;stroke:#ff7f0e;stroke-linecap:square;"/>
   </g>
   <g id="patch_20">
    <path d="M 75.6 445.376842 
L 75.6 403.882105 
" style="fill:none;stroke:#000000;stroke-linecap:square;stroke-linejoin:miter;stroke-width:1.5;"/>
   </g>
   <g id="legend_4">
    <g id="patch_21">
     <path d="M 191.38 429.285543 
L 220.775625 429.285543 
Q 222.175625 429.285543 222.175625 427.885543 
L 222.175625 408.782105 
Q 222.175625 407.382105 220.775625 407.382105 
L 191.38 407.382105 
Q 189.98 407.382105 189.98 408.782105 
L 189.98 427.885543 
Q 189.98 429.285543 191.38 429.285543 
z
" style="fill:#ffffff;opacity:0.8;stroke:#000000;stroke-linejoin:miter;"/>
    </g>
    <g id="line2d_53">
     <path d="M 192.78 412.742574 
L 199.78 412.742574 
" style="fill:none;stroke:#1f77b4;stroke-linecap:square;"/>
    </g>
    <g id="line2d_54"/>
    <g id="text_35">
     <!-- OFF -->
     <g transform="translate(205.38 415.192574)scale(0.07 -0.07)">
      <defs>
       <path d="M 309 2231 
Q 309 3372 921 4017 
Q 1534 4663 2503 4663 
Q 3138 4663 3647 4359 
Q 4156 4056 4423 3514 
Q 4691 2972 4691 2284 
Q 4691 1588 4409 1038 
Q 4128 488 3612 205 
Q 3097 -78 2500 -78 
Q 1853 -78 1343 234 
Q 834 547 571 1087 
Q 309 1628 309 2231 
z
M 934 2222 
Q 934 1394 1379 917 
Q 1825 441 2497 441 
Q 3181 441 3623 922 
Q 4066 1403 4066 2288 
Q 4066 2847 3877 3264 
Q 3688 3681 3323 3911 
Q 2959 4141 2506 4141 
Q 1863 4141 1398 3698 
Q 934 3256 934 2222 
z
" id="ArialMT-4f" transform="scale(0.015625)"/>
       <path d="M 525 0 
L 525 4581 
L 3616 4581 
L 3616 4041 
L 1131 4041 
L 1131 2622 
L 3281 2622 
L 3281 2081 
L 1131 2081 
L 1131 0 
L 525 0 
z
" id="ArialMT-46" transform="scale(0.015625)"/>
      </defs>
      <use xlink:href="#ArialMT-4f"/>
      <use x="77.783203" xlink:href="#ArialMT-46"/>
      <use x="138.867188" xlink:href="#ArialMT-46"/>
     </g>
    </g>
    <g id="line2d_55">
     <path d="M 192.78 422.644293 
L 199.78 422.644293 
" style="fill:none;stroke:#ff7f0e;stroke-linecap:square;"/>
    </g>
    <g id="line2d_56"/>
    <g id="text_36">
     <!-- ON -->
     <g transform="translate(205.38 425.094293)scale(0.07 -0.07)">
      <use xlink:href="#ArialMT-4f"/>
      <use x="77.783203" xlink:href="#ArialMT-4e"/>
     </g>
    </g>
   </g>
  </g>
  <g id="axes_9">
   <g id="patch_22">
    <path d="M 75.6 499.32 
L 176.4 499.32 
L 176.4 457.825263 
L 75.6 457.825263 
z
" style="fill:#ffffff;"/>
   </g>
   <g id="matplotlib.axis_17">
    <g id="xtick_17">
     <g id="line2d_57">
      <defs>
       <path d="M 0 0 
L 0 3.5 
" id="md1cedbefd7" style="stroke:#000000;stroke-width:1.5;"/>
      </defs>
      <g>
       <use style="stroke:#000000;stroke-width:1.5;" x="75.6" xlink:href="#md1cedbefd7" y="499.32"/>
      </g>
     </g>
     <g id="text_37">
      <!-- 11 -->
      <g transform="translate(70.927031 512.762031)scale(0.09 -0.09)">
       <use xlink:href="#ArialMT-31"/>
       <use x="48.240234" xlink:href="#ArialMT-31"/>
      </g>
     </g>
    </g>
    <g id="xtick_18">
     <g id="line2d_58">
      <g>
       <use style="stroke:#000000;stroke-width:1.5;" x="176.4" xlink:href="#md1cedbefd7" y="499.32"/>
      </g>
     </g>
     <g id="text_38">
      <!-- 12 -->
      <g transform="translate(171.395156 512.762031)scale(0.09 -0.09)">
       <use xlink:href="#ArialMT-31"/>
       <use x="55.615234" xlink:href="#ArialMT-32"/>
      </g>
     </g>
    </g>
    <g id="text_39">
     <!-- Time (s) -->
     <g transform="translate(109.672734 521.1025)scale(0.09 -0.09)">
      <use xlink:href="#ArialMT-54"/>
      <use x="57.333984" xlink:href="#ArialMT-69"/>
      <use x="79.550781" xlink:href="#ArialMT-6d"/>
      <use x="162.851562" xlink:href="#ArialMT-65"/>
      <use x="218.466797" xlink:href="#ArialMT-20"/>
      <use x="246.25" xlink:href="#ArialMT-28"/>
      <use x="279.550781" xlink:href="#ArialMT-73"/>
      <use x="329.550781" xlink:href="#ArialMT-29"/>
     </g>
    </g>
   </g>
   <g id="matplotlib.axis_18">
    <g id="ytick_17">
     <g id="line2d_59">
      <g>
       <use style="stroke:#000000;stroke-width:1.5;" x="75.6" xlink:href="#m7ab4eb5bdf" y="499.32"/>
      </g>
     </g>
     <g id="text_40">
      <!-- 0 -->
      <g transform="translate(63.595156 502.541016)scale(0.09 -0.09)">
       <use xlink:href="#ArialMT-30"/>
      </g>
     </g>
    </g>
    <g id="ytick_18">
     <g id="line2d_60">
      <g>
       <use style="stroke:#000000;stroke-width:1.5;" x="75.6" xlink:href="#m7ab4eb5bdf" y="457.825263"/>
      </g>
     </g>
     <g id="text_41">
      <!-- 1 -->
      <g transform="translate(63.595156 461.046279)scale(0.09 -0.09)">
       <use xlink:href="#ArialMT-31"/>
      </g>
     </g>
    </g>
    <g id="text_42">
     <!-- Thick -->
     <g transform="translate(14.449219 476.139678)scale(0.09 -0.09)">
      <use xlink:href="#ArialMT-54"/>
      <use x="61.083984" xlink:href="#ArialMT-68"/>
      <use x="116.699219" xlink:href="#ArialMT-69"/>
      <use x="138.916016" xlink:href="#ArialMT-63"/>
      <use x="188.916016" xlink:href="#ArialMT-6b"/>
     </g>
     <!-- filament -->
     <g transform="translate(9.444375 485.658866)scale(0.09 -0.09)">
      <use xlink:href="#ArialMT-66"/>
      <use x="27.783203" xlink:href="#ArialMT-69"/>
      <use x="50" xlink:href="#ArialMT-6c"/>
      <use x="72.216797" xlink:href="#ArialMT-61"/>
      <use x="127.832031" xlink:href="#ArialMT-6d"/>
      <use x="211.132812" xlink:href="#ArialMT-65"/>
      <use x="266.748047" xlink:href="#ArialMT-6e"/>
      <use x="322.363281" xlink:href="#ArialMT-74"/>
     </g>
    </g>
   </g>
   <g id="line2d_61">
    <path clip-path="url(#pfd66add093)" d="M 75.6 459.179734 
L 79.632 460.106312 
L 82.656 460.510346 
L 86.3856 460.817864 
L 91.5768 460.998075 
L 101.1024 461.268662 
L 101.3544 461.762948 
L 101.6064 462.798822 
L 101.8584 464.770196 
L 102.816 474.121865 
L 103.1688 475.02396 
L 103.5216 475.419073 
L 103.9248 475.551773 
L 104.6808 475.509947 
L 105.7896 475.204379 
L 107.8056 474.348799 
L 111.4344 472.839055 
L 114.156 471.973101 
L 117.2808 471.224785 
L 121.1112 470.544769 
L 126.2016 469.87604 
L 130.6872 469.245154 
L 132.3 468.68232 
L 134.316 467.726239 
L 137.5416 465.906695 
L 142.0776 463.394189 
L 144.8496 462.124367 
L 147.4704 461.165465 
L 150.192 460.408311 
L 153.1656 459.816679 
L 155.5344 459.54049 
L 157.6512 459.358743 
L 158.0544 459.032387 
L 158.5584 458.726902 
L 159.1632 458.641257 
L 160.2216 458.758272 
L 162.3888 459.270981 
L 166.0176 460.097639 
L 168.9912 460.498894 
L 172.6704 460.80915 
L 176.4 460.961643 
L 176.4 460.961643 
" style="fill:none;stroke:#1f77b4;stroke-linecap:square;"/>
   </g>
   <g id="line2d_62">
    <path clip-path="url(#pfd66add093)" d="M 75.6 497.980359 
L 79.38 497.138049 
L 82.152 496.796045 
L 86.1336 496.483864 
L 91.476 496.311901 
L 101.2032 496.05368 
L 101.4552 495.591279 
L 101.7072 494.656282 
L 102.0096 492.471501 
L 102.4632 489.02055 
L 102.9168 487.360511 
L 103.2696 486.795436 
L 103.7232 486.494101 
L 104.3784 486.39302 
L 105.7392 486.448374 
L 107.8056 486.773236 
L 115.5168 488.127085 
L 120.2544 488.644649 
L 126.5544 489.094411 
L 130.7376 489.446576 
L 132.4008 489.906006 
L 134.5176 490.735237 
L 137.7936 492.292783 
L 142.632 494.565326 
L 145.5552 495.685007 
L 148.3776 496.529906 
L 151.3512 497.184876 
L 154.6272 497.67702 
L 156.3408 497.736851 
L 157.7016 497.853763 
L 158.1048 498.165816 
L 158.6088 498.439727 
L 159.264 498.508151 
L 160.3728 498.366036 
L 162.8928 497.764288 
L 165.9168 497.1217 
L 168.7896 496.774825 
L 172.7712 496.473386 
L 176.4 496.342707 
L 176.4 496.342707 
" style="fill:none;stroke:#ff7f0e;stroke-linecap:square;"/>
   </g>
   <g id="line2d_63">
    <path clip-path="url(#pfd66add093)" d="M 75.6 499.305175 
L 101.052 499.067449 
L 101.4552 498.778846 
L 101.7576 498.241979 
L 102.06 497.136435 
L 102.6144 494.927782 
L 102.9168 494.651469 
L 103.4712 494.460842 
L 104.2776 494.508893 
L 105.7896 494.80724 
L 111.4344 496.143429 
L 114.912 496.649187 
L 119.6496 497.095426 
L 127.8648 497.610122 
L 134.2656 498.086706 
L 143.3376 498.822204 
L 149.94 499.094422 
L 161.9352 499.305726 
L 176.4 499.16091 
L 176.4 499.16091 
" style="fill:none;stroke:#2ca02c;stroke-linecap:square;"/>
   </g>
   <g id="patch_23">
    <path d="M 75.6 499.32 
L 75.6 457.825263 
" style="fill:none;stroke:#000000;stroke-linecap:square;stroke-linejoin:miter;stroke-width:1.5;"/>
   </g>
   <g id="patch_24">
    <path d="M 75.6 499.32 
L 176.4 499.32 
" style="fill:none;stroke:#000000;stroke-linecap:square;stroke-linejoin:miter;stroke-width:1.5;"/>
   </g>
   <g id="legend_5">
    <g id="patch_25">
     <path d="M 191.38 493.130419 
L 221.559844 493.130419 
Q 222.959844 493.130419 222.959844 491.730419 
L 222.959844 462.725263 
Q 222.959844 461.325263 221.559844 461.325263 
L 191.38 461.325263 
Q 189.98 461.325263 189.98 462.725263 
L 189.98 491.730419 
Q 189.98 493.130419 191.38 493.130419 
z
" style="fill:#ffffff;opacity:0.8;stroke:#000000;stroke-linejoin:miter;"/>
    </g>
    <g id="line2d_64">
     <path d="M 192.78 466.685732 
L 199.78 466.685732 
" style="fill:none;stroke:#1f77b4;stroke-linecap:square;"/>
    </g>
    <g id="line2d_65"/>
    <g id="text_43">
     <!-- SRX -->
     <g transform="translate(205.38 469.135732)scale(0.07 -0.07)">
      <defs>
       <path d="M 288 1472 
L 859 1522 
Q 900 1178 1048 958 
Q 1197 738 1509 602 
Q 1822 466 2213 466 
Q 2559 466 2825 569 
Q 3091 672 3220 851 
Q 3350 1031 3350 1244 
Q 3350 1459 3225 1620 
Q 3100 1781 2813 1891 
Q 2628 1963 1997 2114 
Q 1366 2266 1113 2400 
Q 784 2572 623 2826 
Q 463 3081 463 3397 
Q 463 3744 659 4045 
Q 856 4347 1234 4503 
Q 1613 4659 2075 4659 
Q 2584 4659 2973 4495 
Q 3363 4331 3572 4012 
Q 3781 3694 3797 3291 
L 3216 3247 
Q 3169 3681 2898 3903 
Q 2628 4125 2100 4125 
Q 1550 4125 1298 3923 
Q 1047 3722 1047 3438 
Q 1047 3191 1225 3031 
Q 1400 2872 2139 2705 
Q 2878 2538 3153 2413 
Q 3553 2228 3743 1945 
Q 3934 1663 3934 1294 
Q 3934 928 3725 604 
Q 3516 281 3123 101 
Q 2731 -78 2241 -78 
Q 1619 -78 1198 103 
Q 778 284 539 648 
Q 300 1013 288 1472 
z
" id="ArialMT-53" transform="scale(0.015625)"/>
       <path d="M 503 0 
L 503 4581 
L 2534 4581 
Q 3147 4581 3465 4457 
Q 3784 4334 3975 4021 
Q 4166 3709 4166 3331 
Q 4166 2844 3850 2509 
Q 3534 2175 2875 2084 
Q 3116 1969 3241 1856 
Q 3506 1613 3744 1247 
L 4541 0 
L 3778 0 
L 3172 953 
Q 2906 1366 2734 1584 
Q 2563 1803 2427 1890 
Q 2291 1978 2150 2013 
Q 2047 2034 1813 2034 
L 1109 2034 
L 1109 0 
L 503 0 
z
M 1109 2559 
L 2413 2559 
Q 2828 2559 3062 2645 
Q 3297 2731 3419 2920 
Q 3541 3109 3541 3331 
Q 3541 3656 3305 3865 
Q 3069 4075 2559 4075 
L 1109 4075 
L 1109 2559 
z
" id="ArialMT-52" transform="scale(0.015625)"/>
       <path d="M 28 0 
L 1800 2388 
L 238 4581 
L 959 4581 
L 1791 3406 
Q 2050 3041 2159 2844 
Q 2313 3094 2522 3366 
L 3444 4581 
L 4103 4581 
L 2494 2422 
L 4228 0 
L 3478 0 
L 2325 1634 
Q 2228 1775 2125 1941 
Q 1972 1691 1906 1597 
L 756 0 
L 28 0 
z
" id="ArialMT-58" transform="scale(0.015625)"/>
      </defs>
      <use xlink:href="#ArialMT-53"/>
      <use x="66.699219" xlink:href="#ArialMT-52"/>
      <use x="138.916016" xlink:href="#ArialMT-58"/>
     </g>
    </g>
    <g id="line2d_66">
     <path d="M 192.78 476.587451 
L 199.78 476.587451 
" style="fill:none;stroke:#ff7f0e;stroke-linecap:square;"/>
    </g>
    <g id="line2d_67"/>
    <g id="text_44">
     <!-- DRX -->
     <g transform="translate(205.38 479.037451)scale(0.07 -0.07)">
      <defs>
       <path d="M 494 0 
L 494 4581 
L 2072 4581 
Q 2606 4581 2888 4516 
Q 3281 4425 3559 4188 
Q 3922 3881 4101 3404 
Q 4281 2928 4281 2316 
Q 4281 1794 4159 1391 
Q 4038 988 3847 723 
Q 3656 459 3429 307 
Q 3203 156 2883 78 
Q 2563 0 2147 0 
L 494 0 
z
M 1100 541 
L 2078 541 
Q 2531 541 2789 625 
Q 3047 709 3200 863 
Q 3416 1078 3536 1442 
Q 3656 1806 3656 2325 
Q 3656 3044 3420 3430 
Q 3184 3816 2847 3947 
Q 2603 4041 2063 4041 
L 1100 4041 
L 1100 541 
z
" id="ArialMT-44" transform="scale(0.015625)"/>
      </defs>
      <use xlink:href="#ArialMT-44"/>
      <use x="72.216797" xlink:href="#ArialMT-52"/>
      <use x="144.433594" xlink:href="#ArialMT-58"/>
     </g>
    </g>
    <g id="line2d_68">
     <path d="M 192.78 486.489169 
L 199.78 486.489169 
" style="fill:none;stroke:#2ca02c;stroke-linecap:square;"/>
    </g>
    <g id="line2d_69"/>
    <g id="text_45">
     <!-- FG -->
     <g transform="translate(205.38 488.939169)scale(0.07 -0.07)">
      <defs>
       <path d="M 2638 1797 
L 2638 2334 
L 4578 2338 
L 4578 638 
Q 4131 281 3656 101 
Q 3181 -78 2681 -78 
Q 2006 -78 1454 211 
Q 903 500 622 1047 
Q 341 1594 341 2269 
Q 341 2938 620 3517 
Q 900 4097 1425 4378 
Q 1950 4659 2634 4659 
Q 3131 4659 3532 4498 
Q 3934 4338 4162 4050 
Q 4391 3763 4509 3300 
L 3963 3150 
Q 3859 3500 3706 3700 
Q 3553 3900 3268 4020 
Q 2984 4141 2638 4141 
Q 2222 4141 1919 4014 
Q 1616 3888 1430 3681 
Q 1244 3475 1141 3228 
Q 966 2803 966 2306 
Q 966 1694 1177 1281 
Q 1388 869 1791 669 
Q 2194 469 2647 469 
Q 3041 469 3416 620 
Q 3791 772 3984 944 
L 3984 1797 
L 2638 1797 
z
" id="ArialMT-47" transform="scale(0.015625)"/>
      </defs>
      <use xlink:href="#ArialMT-46"/>
      <use x="61.083984" xlink:href="#ArialMT-47"/>
     </g>
    </g>
   </g>
  </g>
 </g>
 <defs>
  <clipPath id="p484658804c">
   <rect height="41.494737" width="100.8" x="75.6" y="26.28"/>
  </clipPath>
  <clipPath id="p09516a3938">
   <rect height="41.494737" width="100.8" x="75.6" y="80.223158"/>
  </clipPath>
  <clipPath id="pa400823e55">
   <rect height="41.494737" width="100.8" x="75.6" y="134.166316"/>
  </clipPath>
  <clipPath id="p31bfe62612">
   <rect height="41.494737" width="100.8" x="75.6" y="188.109474"/>
  </clipPath>
  <clipPath id="p5fce71ec2c">
   <rect height="41.494737" width="100.8" x="75.6" y="242.052632"/>
  </clipPath>
  <clipPath id="p179fcae8b2">
   <rect height="41.494737" width="100.8" x="75.6" y="295.995789"/>
  </clipPath>
  <clipPath id="pa7393df24d">
   <rect height="41.494737" width="100.8" x="75.6" y="349.938947"/>
  </clipPath>
  <clipPath id="p9ec501127d">
   <rect height="41.494737" width="100.8" x="75.6" y="403.882105"/>
  </clipPath>
  <clipPath id="pfd66add093">
   <rect height="41.494737" width="100.8" x="75.6" y="457.825263"/>
  </clipPath>
 </defs>
</svg>
