<?xml version="1.0" encoding="utf-8" standalone="no"?>
<!DOCTYPE svg PUBLIC "-//W3C//DTD SVG 1.1//EN"
  "http://www.w3.org/Graphics/SVG/1.1/DTD/svg11.dtd">
<svg height="493.2pt" version="1.1" viewBox="0 0 252 493.2" width="252pt" xmlns="http://www.w3.org/2000/svg" xmlns:xlink="http://www.w3.org/1999/xlink">
 <metadata>
  <rdf:RDF xmlns:cc="http://creativecommons.org/ns#" xmlns:dc="http://purl.org/dc/elements/1.1/" xmlns:rdf="http://www.w3.org/1999/02/22-rdf-syntax-ns#">
   <cc:Work>
    <dc:type rdf:resource="http://purl.org/dc/dcmitype/StillImage"/>
    <dc:date>2021-10-21T17:40:22.148421</dc:date>
    <dc:format>image/svg+xml</dc:format>
    <dc:creator>
     <cc:Agent>
      <dc:title>Matplotlib v3.4.2, https://matplotlib.org/</dc:title>
     </cc:Agent>
    </dc:creator>
   </cc:Work>
  </rdf:RDF>
 </metadata>
 <defs>
  <style type="text/css">*{stroke-linecap:butt;stroke-linejoin:round;}</style>
 </defs>
 <g id="figure_1">
  <g id="patch_1">
   <path d="M 0 493.2 
L 252 493.2 
L 252 0 
L 0 0 
z
" style="fill:#ffffff;"/>
  </g>
  <g id="axes_1">
   <g id="patch_2">
    <path d="M 79.885 43.731214 
L 155.64 43.731214 
L 155.64 13.32 
L 79.885 13.32 
z
" style="fill:#ffffff;"/>
   </g>
   <g id="matplotlib.axis_1">
    <g id="xtick_1"/>
    <g id="xtick_2"/>
   </g>
   <g id="matplotlib.axis_2">
    <g id="ytick_1">
     <g id="line2d_1">
      <defs>
       <path d="M 0 0 
L -3.5 0 
" id="mec49c9ef70" style="stroke:#000000;stroke-width:1.5;"/>
      </defs>
      <g>
       <use style="stroke:#000000;stroke-width:1.5;" x="79.885" xlink:href="#mec49c9ef70" y="43.731214"/>
      </g>
     </g>
     <g id="text_1">
      <!-- 0 -->
      <g transform="translate(68.992344 46.236448)scale(0.07 -0.07)">
       <defs>
        <path d="M 266 2259 
Q 266 3072 433 3567 
Q 600 4063 929 4331 
Q 1259 4600 1759 4600 
Q 2128 4600 2406 4451 
Q 2684 4303 2865 4023 
Q 3047 3744 3150 3342 
Q 3253 2941 3253 2259 
Q 3253 1453 3087 958 
Q 2922 463 2592 192 
Q 2263 -78 1759 -78 
Q 1097 -78 719 397 
Q 266 969 266 2259 
z
M 844 2259 
Q 844 1131 1108 757 
Q 1372 384 1759 384 
Q 2147 384 2411 759 
Q 2675 1134 2675 2259 
Q 2675 3391 2411 3762 
Q 2147 4134 1753 4134 
Q 1366 4134 1134 3806 
Q 844 3388 844 2259 
z
" id="ArialMT-30" transform="scale(0.015625)"/>
       </defs>
       <use xlink:href="#ArialMT-30"/>
      </g>
     </g>
    </g>
    <g id="ytick_2">
     <g id="line2d_2">
      <g>
       <use style="stroke:#000000;stroke-width:1.5;" x="79.885" xlink:href="#mec49c9ef70" y="13.32"/>
      </g>
     </g>
     <g id="text_2">
      <!-- 120 -->
      <g transform="translate(61.207031 15.825234)scale(0.07 -0.07)">
       <defs>
        <path d="M 2384 0 
L 1822 0 
L 1822 3584 
Q 1619 3391 1289 3197 
Q 959 3003 697 2906 
L 697 3450 
Q 1169 3672 1522 3987 
Q 1875 4303 2022 4600 
L 2384 4600 
L 2384 0 
z
" id="ArialMT-31" transform="scale(0.015625)"/>
        <path d="M 3222 541 
L 3222 0 
L 194 0 
Q 188 203 259 391 
Q 375 700 629 1000 
Q 884 1300 1366 1694 
Q 2113 2306 2375 2664 
Q 2638 3022 2638 3341 
Q 2638 3675 2398 3904 
Q 2159 4134 1775 4134 
Q 1369 4134 1125 3890 
Q 881 3647 878 3216 
L 300 3275 
Q 359 3922 746 4261 
Q 1134 4600 1788 4600 
Q 2447 4600 2831 4234 
Q 3216 3869 3216 3328 
Q 3216 3053 3103 2787 
Q 2991 2522 2730 2228 
Q 2469 1934 1863 1422 
Q 1356 997 1212 845 
Q 1069 694 975 541 
L 3222 541 
z
" id="ArialMT-32" transform="scale(0.015625)"/>
       </defs>
       <use xlink:href="#ArialMT-31"/>
       <use x="55.615234" xlink:href="#ArialMT-32"/>
       <use x="111.230469" xlink:href="#ArialMT-30"/>
      </g>
     </g>
    </g>
    <g id="text_3">
     <!-- Pressure -->
     <g transform="translate(11.169531 26.541107)scale(0.07 -0.07)">
      <defs>
       <path d="M 494 0 
L 494 4581 
L 2222 4581 
Q 2678 4581 2919 4538 
Q 3256 4481 3484 4323 
Q 3713 4166 3852 3881 
Q 3991 3597 3991 3256 
Q 3991 2672 3619 2267 
Q 3247 1863 2275 1863 
L 1100 1863 
L 1100 0 
L 494 0 
z
M 1100 2403 
L 2284 2403 
Q 2872 2403 3119 2622 
Q 3366 2841 3366 3238 
Q 3366 3525 3220 3729 
Q 3075 3934 2838 4000 
Q 2684 4041 2272 4041 
L 1100 4041 
L 1100 2403 
z
" id="ArialMT-50" transform="scale(0.015625)"/>
       <path d="M 416 0 
L 416 3319 
L 922 3319 
L 922 2816 
Q 1116 3169 1280 3281 
Q 1444 3394 1641 3394 
Q 1925 3394 2219 3213 
L 2025 2691 
Q 1819 2813 1613 2813 
Q 1428 2813 1281 2702 
Q 1134 2591 1072 2394 
Q 978 2094 978 1738 
L 978 0 
L 416 0 
z
" id="ArialMT-72" transform="scale(0.015625)"/>
       <path d="M 2694 1069 
L 3275 997 
Q 3138 488 2766 206 
Q 2394 -75 1816 -75 
Q 1088 -75 661 373 
Q 234 822 234 1631 
Q 234 2469 665 2931 
Q 1097 3394 1784 3394 
Q 2450 3394 2872 2941 
Q 3294 2488 3294 1666 
Q 3294 1616 3291 1516 
L 816 1516 
Q 847 969 1125 678 
Q 1403 388 1819 388 
Q 2128 388 2347 550 
Q 2566 713 2694 1069 
z
M 847 1978 
L 2700 1978 
Q 2663 2397 2488 2606 
Q 2219 2931 1791 2931 
Q 1403 2931 1139 2672 
Q 875 2413 847 1978 
z
" id="ArialMT-65" transform="scale(0.015625)"/>
       <path d="M 197 991 
L 753 1078 
Q 800 744 1014 566 
Q 1228 388 1613 388 
Q 2000 388 2187 545 
Q 2375 703 2375 916 
Q 2375 1106 2209 1216 
Q 2094 1291 1634 1406 
Q 1016 1563 777 1677 
Q 538 1791 414 1992 
Q 291 2194 291 2438 
Q 291 2659 392 2848 
Q 494 3038 669 3163 
Q 800 3259 1026 3326 
Q 1253 3394 1513 3394 
Q 1903 3394 2198 3281 
Q 2494 3169 2634 2976 
Q 2775 2784 2828 2463 
L 2278 2388 
Q 2241 2644 2061 2787 
Q 1881 2931 1553 2931 
Q 1166 2931 1000 2803 
Q 834 2675 834 2503 
Q 834 2394 903 2306 
Q 972 2216 1119 2156 
Q 1203 2125 1616 2013 
Q 2213 1853 2448 1751 
Q 2684 1650 2818 1456 
Q 2953 1263 2953 975 
Q 2953 694 2789 445 
Q 2625 197 2315 61 
Q 2006 -75 1616 -75 
Q 969 -75 630 194 
Q 291 463 197 991 
z
" id="ArialMT-73" transform="scale(0.015625)"/>
       <path d="M 2597 0 
L 2597 488 
Q 2209 -75 1544 -75 
Q 1250 -75 995 37 
Q 741 150 617 320 
Q 494 491 444 738 
Q 409 903 409 1263 
L 409 3319 
L 972 3319 
L 972 1478 
Q 972 1038 1006 884 
Q 1059 663 1231 536 
Q 1403 409 1656 409 
Q 1909 409 2131 539 
Q 2353 669 2445 892 
Q 2538 1116 2538 1541 
L 2538 3319 
L 3100 3319 
L 3100 0 
L 2597 0 
z
" id="ArialMT-75" transform="scale(0.015625)"/>
      </defs>
      <use xlink:href="#ArialMT-50"/>
      <use x="66.699219" xlink:href="#ArialMT-72"/>
      <use x="100" xlink:href="#ArialMT-65"/>
      <use x="155.615234" xlink:href="#ArialMT-73"/>
      <use x="205.615234" xlink:href="#ArialMT-73"/>
      <use x="255.615234" xlink:href="#ArialMT-75"/>
      <use x="311.230469" xlink:href="#ArialMT-72"/>
      <use x="344.53125" xlink:href="#ArialMT-65"/>
     </g>
     <!-- (mm Hg) -->
     <g transform="translate(11.566016 34.047294)scale(0.07 -0.07)">
      <defs>
       <path d="M 1497 -1347 
Q 1031 -759 709 28 
Q 388 816 388 1659 
Q 388 2403 628 3084 
Q 909 3875 1497 4659 
L 1900 4659 
Q 1522 4009 1400 3731 
Q 1209 3300 1100 2831 
Q 966 2247 966 1656 
Q 966 153 1900 -1347 
L 1497 -1347 
z
" id="ArialMT-28" transform="scale(0.015625)"/>
       <path d="M 422 0 
L 422 3319 
L 925 3319 
L 925 2853 
Q 1081 3097 1340 3245 
Q 1600 3394 1931 3394 
Q 2300 3394 2536 3241 
Q 2772 3088 2869 2813 
Q 3263 3394 3894 3394 
Q 4388 3394 4653 3120 
Q 4919 2847 4919 2278 
L 4919 0 
L 4359 0 
L 4359 2091 
Q 4359 2428 4304 2576 
Q 4250 2725 4106 2815 
Q 3963 2906 3769 2906 
Q 3419 2906 3187 2673 
Q 2956 2441 2956 1928 
L 2956 0 
L 2394 0 
L 2394 2156 
Q 2394 2531 2256 2718 
Q 2119 2906 1806 2906 
Q 1569 2906 1367 2781 
Q 1166 2656 1075 2415 
Q 984 2175 984 1722 
L 984 0 
L 422 0 
z
" id="ArialMT-6d" transform="scale(0.015625)"/>
       <path id="ArialMT-20" transform="scale(0.015625)"/>
       <path d="M 513 0 
L 513 4581 
L 1119 4581 
L 1119 2700 
L 3500 2700 
L 3500 4581 
L 4106 4581 
L 4106 0 
L 3500 0 
L 3500 2159 
L 1119 2159 
L 1119 0 
L 513 0 
z
" id="ArialMT-48" transform="scale(0.015625)"/>
       <path d="M 319 -275 
L 866 -356 
Q 900 -609 1056 -725 
Q 1266 -881 1628 -881 
Q 2019 -881 2231 -725 
Q 2444 -569 2519 -288 
Q 2563 -116 2559 434 
Q 2191 0 1641 0 
Q 956 0 581 494 
Q 206 988 206 1678 
Q 206 2153 378 2554 
Q 550 2956 876 3175 
Q 1203 3394 1644 3394 
Q 2231 3394 2613 2919 
L 2613 3319 
L 3131 3319 
L 3131 450 
Q 3131 -325 2973 -648 
Q 2816 -972 2473 -1159 
Q 2131 -1347 1631 -1347 
Q 1038 -1347 672 -1080 
Q 306 -813 319 -275 
z
M 784 1719 
Q 784 1066 1043 766 
Q 1303 466 1694 466 
Q 2081 466 2343 764 
Q 2606 1063 2606 1700 
Q 2606 2309 2336 2618 
Q 2066 2928 1684 2928 
Q 1309 2928 1046 2623 
Q 784 2319 784 1719 
z
" id="ArialMT-67" transform="scale(0.015625)"/>
       <path d="M 791 -1347 
L 388 -1347 
Q 1322 153 1322 1656 
Q 1322 2244 1188 2822 
Q 1081 3291 891 3722 
Q 769 4003 388 4659 
L 791 4659 
Q 1378 3875 1659 3084 
Q 1900 2403 1900 1659 
Q 1900 816 1576 28 
Q 1253 -759 791 -1347 
z
" id="ArialMT-29" transform="scale(0.015625)"/>
      </defs>
      <use xlink:href="#ArialMT-28"/>
      <use x="33.300781" xlink:href="#ArialMT-6d"/>
      <use x="116.601562" xlink:href="#ArialMT-6d"/>
      <use x="199.902344" xlink:href="#ArialMT-20"/>
      <use x="227.685547" xlink:href="#ArialMT-48"/>
      <use x="299.902344" xlink:href="#ArialMT-67"/>
      <use x="355.517578" xlink:href="#ArialMT-29"/>
     </g>
    </g>
   </g>
   <g id="line2d_3">
    <path clip-path="url(#p3c500cbdb7)" d="M 79.885 43.094556 
L 83.21822 42.162765 
L 85.869645 41.694094 
L 88.748335 41.370121 
L 92.649718 41.173207 
L 98.82375 40.944545 
L 99.013138 40.336565 
L 99.240403 38.629385 
L 99.467668 34.789209 
L 100.03583 22.555923 
L 100.300973 21.621983 
L 100.755503 20.262906 
L 101.437298 18.614427 
L 102.232725 17.204569 
L 103.06603 16.185635 
L 103.861458 15.555435 
L 104.656885 15.208162 
L 105.603823 15.050257 
L 107.043168 15.06224 
L 109.656715 15.329976 
L 113.06569 15.902626 
L 117.118583 16.816754 
L 120.94421 17.883676 
L 121.55025 18.306006 
L 122.3078 19.140847 
L 123.254738 20.547214 
L 124.58045 22.953005 
L 129.8833 33.003741 
L 131.474155 35.346468 
L 132.989255 37.191416 
L 134.466478 38.651034 
L 135.981578 39.841467 
L 137.572433 40.809897 
L 139.27692 41.589241 
L 140.223858 41.846896 
L 141.776835 41.995062 
L 142.041978 42.197281 
L 142.231365 42.682183 
L 142.534385 43.646917 
L 142.837405 43.62885 
L 144.314628 43.258144 
L 148.632663 42.068833 
L 152.079515 41.527488 
L 155.299103 41.265829 
L 155.602123 41.25026 
L 155.602123 41.25026 
" style="fill:none;stroke:#1f77b4;stroke-linecap:square;"/>
   </g>
   <g id="line2d_4">
    <path clip-path="url(#p3c500cbdb7)" d="M 79.885 23.250803 
L 90.301313 25.162114 
L 99.694933 26.68991 
L 99.846443 26.026453 
L 100.300973 24.140685 
L 100.94489 22.271181 
L 101.70244 20.78418 
L 102.649378 19.408672 
L 103.709948 18.264197 
L 104.808395 17.399365 
L 105.982598 16.757465 
L 107.270433 16.311963 
L 108.747655 16.045722 
L 110.49002 15.967988 
L 112.61116 16.106439 
L 115.300463 16.517676 
L 118.747315 17.279888 
L 135.072518 21.239491 
L 144.655525 23.213852 
L 155.03396 25.122617 
L 155.602123 25.220955 
L 155.602123 25.220955 
" style="fill:none;stroke:#ff7f0e;stroke-linecap:square;"/>
   </g>
   <g id="line2d_5">
    <path clip-path="url(#p3c500cbdb7)" d="M 79.885 23.3686 
L 90.33919 25.273587 
L 99.808565 26.800235 
L 100.073708 26.604435 
L 100.528238 25.907514 
L 103.634193 20.330066 
L 104.73264 19.077613 
L 105.831088 18.154858 
L 107.00529 17.459998 
L 108.255248 16.976904 
L 109.694593 16.664825 
L 111.361203 16.537359 
L 113.406588 16.615354 
L 115.94438 16.945097 
L 119.239723 17.609734 
L 125.527388 19.178956 
L 134.201335 21.182106 
L 143.746465 23.155136 
L 154.1249 25.070272 
L 155.602123 25.325525 
L 155.602123 25.325525 
" style="fill:none;stroke:#2ca02c;stroke-linecap:square;"/>
   </g>
   <g id="patch_3">
    <path d="M 79.885 43.731214 
L 79.885 13.32 
" style="fill:none;stroke:#000000;stroke-linecap:square;stroke-linejoin:miter;stroke-width:1.5;"/>
   </g>
   <g id="legend_1">
    <g id="patch_4">
     <path d="M 174.991 43.581562 
L 211.203813 43.581562 
Q 212.403813 43.581562 212.403813 42.381562 
L 212.403813 17.52 
Q 212.403813 16.32 211.203813 16.32 
L 174.991 16.32 
Q 173.791 16.32 173.791 17.52 
L 173.791 42.381562 
Q 173.791 43.581562 174.991 43.581562 
z
" style="fill:#ffffff;opacity:0.8;stroke:#cccccc;stroke-linejoin:miter;"/>
    </g>
    <g id="line2d_6">
     <path d="M 176.191 20.914687 
L 182.191 20.914687 
" style="fill:none;stroke:#1f77b4;stroke-linecap:square;"/>
    </g>
    <g id="line2d_7"/>
    <g id="text_4">
     <!-- Ventricle -->
     <g transform="translate(186.991 23.014687)scale(0.06 -0.06)">
      <defs>
       <path d="M 1803 0 
L 28 4581 
L 684 4581 
L 1875 1253 
Q 2019 853 2116 503 
Q 2222 878 2363 1253 
L 3600 4581 
L 4219 4581 
L 2425 0 
L 1803 0 
z
" id="ArialMT-56" transform="scale(0.015625)"/>
       <path d="M 422 0 
L 422 3319 
L 928 3319 
L 928 2847 
Q 1294 3394 1984 3394 
Q 2284 3394 2536 3286 
Q 2788 3178 2913 3003 
Q 3038 2828 3088 2588 
Q 3119 2431 3119 2041 
L 3119 0 
L 2556 0 
L 2556 2019 
Q 2556 2363 2490 2533 
Q 2425 2703 2258 2804 
Q 2091 2906 1866 2906 
Q 1506 2906 1245 2678 
Q 984 2450 984 1813 
L 984 0 
L 422 0 
z
" id="ArialMT-6e" transform="scale(0.015625)"/>
       <path d="M 1650 503 
L 1731 6 
Q 1494 -44 1306 -44 
Q 1000 -44 831 53 
Q 663 150 594 308 
Q 525 466 525 972 
L 525 2881 
L 113 2881 
L 113 3319 
L 525 3319 
L 525 4141 
L 1084 4478 
L 1084 3319 
L 1650 3319 
L 1650 2881 
L 1084 2881 
L 1084 941 
Q 1084 700 1114 631 
Q 1144 563 1211 522 
Q 1278 481 1403 481 
Q 1497 481 1650 503 
z
" id="ArialMT-74" transform="scale(0.015625)"/>
       <path d="M 425 3934 
L 425 4581 
L 988 4581 
L 988 3934 
L 425 3934 
z
M 425 0 
L 425 3319 
L 988 3319 
L 988 0 
L 425 0 
z
" id="ArialMT-69" transform="scale(0.015625)"/>
       <path d="M 2588 1216 
L 3141 1144 
Q 3050 572 2676 248 
Q 2303 -75 1759 -75 
Q 1078 -75 664 370 
Q 250 816 250 1647 
Q 250 2184 428 2587 
Q 606 2991 970 3192 
Q 1334 3394 1763 3394 
Q 2303 3394 2647 3120 
Q 2991 2847 3088 2344 
L 2541 2259 
Q 2463 2594 2264 2762 
Q 2066 2931 1784 2931 
Q 1359 2931 1093 2626 
Q 828 2322 828 1663 
Q 828 994 1084 691 
Q 1341 388 1753 388 
Q 2084 388 2306 591 
Q 2528 794 2588 1216 
z
" id="ArialMT-63" transform="scale(0.015625)"/>
       <path d="M 409 0 
L 409 4581 
L 972 4581 
L 972 0 
L 409 0 
z
" id="ArialMT-6c" transform="scale(0.015625)"/>
      </defs>
      <use xlink:href="#ArialMT-56"/>
      <use x="61.199219" xlink:href="#ArialMT-65"/>
      <use x="116.814453" xlink:href="#ArialMT-6e"/>
      <use x="172.429688" xlink:href="#ArialMT-74"/>
      <use x="200.212891" xlink:href="#ArialMT-72"/>
      <use x="233.513672" xlink:href="#ArialMT-69"/>
      <use x="255.730469" xlink:href="#ArialMT-63"/>
      <use x="305.730469" xlink:href="#ArialMT-6c"/>
      <use x="327.947266" xlink:href="#ArialMT-65"/>
     </g>
    </g>
    <g id="line2d_8">
     <path d="M 176.191 29.401875 
L 182.191 29.401875 
" style="fill:none;stroke:#ff7f0e;stroke-linecap:square;"/>
    </g>
    <g id="line2d_9"/>
    <g id="text_5">
     <!-- Aorta -->
     <g transform="translate(186.991 31.501875)scale(0.06 -0.06)">
      <defs>
       <path d="M -9 0 
L 1750 4581 
L 2403 4581 
L 4278 0 
L 3588 0 
L 3053 1388 
L 1138 1388 
L 634 0 
L -9 0 
z
M 1313 1881 
L 2866 1881 
L 2388 3150 
Q 2169 3728 2063 4100 
Q 1975 3659 1816 3225 
L 1313 1881 
z
" id="ArialMT-41" transform="scale(0.015625)"/>
       <path d="M 213 1659 
Q 213 2581 725 3025 
Q 1153 3394 1769 3394 
Q 2453 3394 2887 2945 
Q 3322 2497 3322 1706 
Q 3322 1066 3130 698 
Q 2938 331 2570 128 
Q 2203 -75 1769 -75 
Q 1072 -75 642 372 
Q 213 819 213 1659 
z
M 791 1659 
Q 791 1022 1069 705 
Q 1347 388 1769 388 
Q 2188 388 2466 706 
Q 2744 1025 2744 1678 
Q 2744 2294 2464 2611 
Q 2184 2928 1769 2928 
Q 1347 2928 1069 2612 
Q 791 2297 791 1659 
z
" id="ArialMT-6f" transform="scale(0.015625)"/>
       <path d="M 2588 409 
Q 2275 144 1986 34 
Q 1697 -75 1366 -75 
Q 819 -75 525 192 
Q 231 459 231 875 
Q 231 1119 342 1320 
Q 453 1522 633 1644 
Q 813 1766 1038 1828 
Q 1203 1872 1538 1913 
Q 2219 1994 2541 2106 
Q 2544 2222 2544 2253 
Q 2544 2597 2384 2738 
Q 2169 2928 1744 2928 
Q 1347 2928 1158 2789 
Q 969 2650 878 2297 
L 328 2372 
Q 403 2725 575 2942 
Q 747 3159 1072 3276 
Q 1397 3394 1825 3394 
Q 2250 3394 2515 3294 
Q 2781 3194 2906 3042 
Q 3031 2891 3081 2659 
Q 3109 2516 3109 2141 
L 3109 1391 
Q 3109 606 3145 398 
Q 3181 191 3288 0 
L 2700 0 
Q 2613 175 2588 409 
z
M 2541 1666 
Q 2234 1541 1622 1453 
Q 1275 1403 1131 1340 
Q 988 1278 909 1158 
Q 831 1038 831 891 
Q 831 666 1001 516 
Q 1172 366 1500 366 
Q 1825 366 2078 508 
Q 2331 650 2450 897 
Q 2541 1088 2541 1459 
L 2541 1666 
z
" id="ArialMT-61" transform="scale(0.015625)"/>
      </defs>
      <use xlink:href="#ArialMT-41"/>
      <use x="66.699219" xlink:href="#ArialMT-6f"/>
      <use x="122.314453" xlink:href="#ArialMT-72"/>
      <use x="155.615234" xlink:href="#ArialMT-74"/>
      <use x="183.398438" xlink:href="#ArialMT-61"/>
     </g>
    </g>
    <g id="line2d_10">
     <path d="M 176.191 37.889062 
L 182.191 37.889062 
" style="fill:none;stroke:#2ca02c;stroke-linecap:square;"/>
    </g>
    <g id="line2d_11"/>
    <g id="text_6">
     <!-- Arteries -->
     <g transform="translate(186.991 39.989062)scale(0.06 -0.06)">
      <use xlink:href="#ArialMT-41"/>
      <use x="66.699219" xlink:href="#ArialMT-72"/>
      <use x="100" xlink:href="#ArialMT-74"/>
      <use x="127.783203" xlink:href="#ArialMT-65"/>
      <use x="183.398438" xlink:href="#ArialMT-72"/>
      <use x="216.699219" xlink:href="#ArialMT-69"/>
      <use x="238.916016" xlink:href="#ArialMT-65"/>
      <use x="294.53125" xlink:href="#ArialMT-73"/>
     </g>
    </g>
   </g>
  </g>
  <g id="axes_2">
   <g id="patch_5">
    <path d="M 79.885 95.169812 
L 155.64 95.169812 
L 155.64 64.758598 
L 79.885 64.758598 
z
" style="fill:#ffffff;"/>
   </g>
   <g id="matplotlib.axis_3">
    <g id="xtick_3"/>
    <g id="xtick_4"/>
   </g>
   <g id="matplotlib.axis_4">
    <g id="ytick_3">
     <g id="line2d_12">
      <g>
       <use style="stroke:#000000;stroke-width:1.5;" x="79.885" xlink:href="#mec49c9ef70" y="95.169812"/>
      </g>
     </g>
     <g id="text_7">
      <!-- 0 -->
      <g transform="translate(68.992344 97.675046)scale(0.07 -0.07)">
       <use xlink:href="#ArialMT-30"/>
      </g>
     </g>
    </g>
    <g id="ytick_4">
     <g id="line2d_13">
      <g>
       <use style="stroke:#000000;stroke-width:1.5;" x="79.885" xlink:href="#mec49c9ef70" y="64.758598"/>
      </g>
     </g>
     <g id="text_8">
      <!-- 28 -->
      <g transform="translate(65.099688 67.263833)scale(0.07 -0.07)">
       <defs>
        <path d="M 1131 2484 
Q 781 2613 612 2850 
Q 444 3088 444 3419 
Q 444 3919 803 4259 
Q 1163 4600 1759 4600 
Q 2359 4600 2725 4251 
Q 3091 3903 3091 3403 
Q 3091 3084 2923 2848 
Q 2756 2613 2416 2484 
Q 2838 2347 3058 2040 
Q 3278 1734 3278 1309 
Q 3278 722 2862 322 
Q 2447 -78 1769 -78 
Q 1091 -78 675 323 
Q 259 725 259 1325 
Q 259 1772 486 2073 
Q 713 2375 1131 2484 
z
M 1019 3438 
Q 1019 3113 1228 2906 
Q 1438 2700 1772 2700 
Q 2097 2700 2305 2904 
Q 2513 3109 2513 3406 
Q 2513 3716 2298 3927 
Q 2084 4138 1766 4138 
Q 1444 4138 1231 3931 
Q 1019 3725 1019 3438 
z
M 838 1322 
Q 838 1081 952 856 
Q 1066 631 1291 507 
Q 1516 384 1775 384 
Q 2178 384 2440 643 
Q 2703 903 2703 1303 
Q 2703 1709 2433 1975 
Q 2163 2241 1756 2241 
Q 1359 2241 1098 1978 
Q 838 1716 838 1322 
z
" id="ArialMT-38" transform="scale(0.015625)"/>
       </defs>
       <use xlink:href="#ArialMT-32"/>
       <use x="55.615234" xlink:href="#ArialMT-38"/>
      </g>
     </g>
    </g>
    <g id="text_9">
     <!-- Pressure -->
     <g transform="translate(11.169531 77.979705)scale(0.07 -0.07)">
      <use xlink:href="#ArialMT-50"/>
      <use x="66.699219" xlink:href="#ArialMT-72"/>
      <use x="100" xlink:href="#ArialMT-65"/>
      <use x="155.615234" xlink:href="#ArialMT-73"/>
      <use x="205.615234" xlink:href="#ArialMT-73"/>
      <use x="255.615234" xlink:href="#ArialMT-75"/>
      <use x="311.230469" xlink:href="#ArialMT-72"/>
      <use x="344.53125" xlink:href="#ArialMT-65"/>
     </g>
     <!-- (mm Hg) -->
     <g transform="translate(11.566016 85.485893)scale(0.07 -0.07)">
      <use xlink:href="#ArialMT-28"/>
      <use x="33.300781" xlink:href="#ArialMT-6d"/>
      <use x="116.601562" xlink:href="#ArialMT-6d"/>
      <use x="199.902344" xlink:href="#ArialMT-20"/>
      <use x="227.685547" xlink:href="#ArialMT-48"/>
      <use x="299.902344" xlink:href="#ArialMT-67"/>
      <use x="355.517578" xlink:href="#ArialMT-29"/>
     </g>
    </g>
   </g>
   <g id="line2d_14">
    <path clip-path="url(#pea8c87c151)" d="M 79.885 68.20476 
L 92.990615 70.195529 
L 101.134278 71.344941 
L 102.422113 71.222252 
L 104.012968 70.831524 
L 106.437128 69.977937 
L 111.85361 68.032009 
L 114.808055 67.24185 
L 117.686745 66.702654 
L 120.679068 66.370515 
L 123.898655 66.241875 
L 127.648528 66.320608 
L 132.231705 66.646977 
L 138.21635 67.308113 
L 147.117563 68.535727 
L 155.602123 69.831842 
L 155.602123 69.831842 
" style="fill:none;stroke:#1f77b4;stroke-linecap:square;"/>
   </g>
   <g id="line2d_15">
    <path clip-path="url(#pea8c87c151)" d="M 79.885 81.139963 
L 104.050845 81.994275 
L 109.42945 81.516306 
L 116.020135 81.021057 
L 122.042658 80.801465 
L 129.239383 80.775482 
L 139.769328 80.979894 
L 149.768988 81.360199 
L 155.602123 81.632097 
L 155.602123 81.632097 
" style="fill:none;stroke:#ff7f0e;stroke-linecap:square;"/>
   </g>
   <g id="line2d_16">
    <path clip-path="url(#pea8c87c151)" d="M 79.885 85.466805 
L 121.474495 85.636358 
L 149.049315 85.511586 
L 155.602123 85.583032 
L 155.602123 85.583032 
" style="fill:none;stroke:#2ca02c;stroke-linecap:square;"/>
   </g>
   <g id="line2d_17">
    <path clip-path="url(#pea8c87c151)" d="M 79.885 87.501113 
L 82.044018 87.706498 
L 84.657565 87.719394 
L 118.557928 87.214916 
L 142.45863 87.015852 
L 144.996423 87.522788 
L 147.193318 87.714754 
L 149.958375 87.713226 
L 155.602123 87.614979 
L 155.602123 87.614979 
" style="fill:none;stroke:#d62728;stroke-linecap:square;"/>
   </g>
   <g id="patch_6">
    <path d="M 79.885 95.169812 
L 79.885 64.758598 
" style="fill:none;stroke:#000000;stroke-linecap:square;stroke-linejoin:miter;stroke-width:1.5;"/>
   </g>
   <g id="legend_2">
    <g id="patch_7">
     <path d="M 174.991 103.580473 
L 216.200688 103.580473 
Q 217.400688 103.580473 217.400688 102.380473 
L 217.400688 68.958598 
Q 217.400688 67.758598 216.200688 67.758598 
L 174.991 67.758598 
Q 173.791 67.758598 173.791 68.958598 
L 173.791 102.380473 
Q 173.791 103.580473 174.991 103.580473 
z
" style="fill:#ffffff;opacity:0.8;stroke:#cccccc;stroke-linejoin:miter;"/>
    </g>
    <g id="line2d_18">
     <path d="M 176.191 72.353286 
L 182.191 72.353286 
" style="fill:none;stroke:#1f77b4;stroke-linecap:square;"/>
    </g>
    <g id="line2d_19"/>
    <g id="text_10">
     <!-- Arterioles -->
     <g transform="translate(186.991 74.453286)scale(0.06 -0.06)">
      <use xlink:href="#ArialMT-41"/>
      <use x="66.699219" xlink:href="#ArialMT-72"/>
      <use x="100" xlink:href="#ArialMT-74"/>
      <use x="127.783203" xlink:href="#ArialMT-65"/>
      <use x="183.398438" xlink:href="#ArialMT-72"/>
      <use x="216.699219" xlink:href="#ArialMT-69"/>
      <use x="238.916016" xlink:href="#ArialMT-6f"/>
      <use x="294.53125" xlink:href="#ArialMT-6c"/>
      <use x="316.748047" xlink:href="#ArialMT-65"/>
      <use x="372.363281" xlink:href="#ArialMT-73"/>
     </g>
    </g>
    <g id="line2d_20">
     <path d="M 176.191 80.913598 
L 182.191 80.913598 
" style="fill:none;stroke:#ff7f0e;stroke-linecap:square;"/>
    </g>
    <g id="line2d_21"/>
    <g id="text_11">
     <!-- Capillaries -->
     <g transform="translate(186.991 83.013598)scale(0.06 -0.06)">
      <defs>
       <path d="M 3763 1606 
L 4369 1453 
Q 4178 706 3683 314 
Q 3188 -78 2472 -78 
Q 1731 -78 1267 223 
Q 803 525 561 1097 
Q 319 1669 319 2325 
Q 319 3041 592 3573 
Q 866 4106 1370 4382 
Q 1875 4659 2481 4659 
Q 3169 4659 3637 4309 
Q 4106 3959 4291 3325 
L 3694 3184 
Q 3534 3684 3231 3912 
Q 2928 4141 2469 4141 
Q 1941 4141 1586 3887 
Q 1231 3634 1087 3207 
Q 944 2781 944 2328 
Q 944 1744 1114 1308 
Q 1284 872 1643 656 
Q 2003 441 2422 441 
Q 2931 441 3284 734 
Q 3638 1028 3763 1606 
z
" id="ArialMT-43" transform="scale(0.015625)"/>
       <path d="M 422 -1272 
L 422 3319 
L 934 3319 
L 934 2888 
Q 1116 3141 1344 3267 
Q 1572 3394 1897 3394 
Q 2322 3394 2647 3175 
Q 2972 2956 3137 2557 
Q 3303 2159 3303 1684 
Q 3303 1175 3120 767 
Q 2938 359 2589 142 
Q 2241 -75 1856 -75 
Q 1575 -75 1351 44 
Q 1128 163 984 344 
L 984 -1272 
L 422 -1272 
z
M 931 1641 
Q 931 1000 1190 694 
Q 1450 388 1819 388 
Q 2194 388 2461 705 
Q 2728 1022 2728 1688 
Q 2728 2322 2467 2637 
Q 2206 2953 1844 2953 
Q 1484 2953 1207 2617 
Q 931 2281 931 1641 
z
" id="ArialMT-70" transform="scale(0.015625)"/>
      </defs>
      <use xlink:href="#ArialMT-43"/>
      <use x="72.216797" xlink:href="#ArialMT-61"/>
      <use x="127.832031" xlink:href="#ArialMT-70"/>
      <use x="183.447266" xlink:href="#ArialMT-69"/>
      <use x="205.664062" xlink:href="#ArialMT-6c"/>
      <use x="227.880859" xlink:href="#ArialMT-6c"/>
      <use x="250.097656" xlink:href="#ArialMT-61"/>
      <use x="305.712891" xlink:href="#ArialMT-72"/>
      <use x="339.013672" xlink:href="#ArialMT-69"/>
      <use x="361.230469" xlink:href="#ArialMT-65"/>
      <use x="416.845703" xlink:href="#ArialMT-73"/>
     </g>
    </g>
    <g id="line2d_22">
     <path d="M 176.191 89.400786 
L 182.191 89.400786 
" style="fill:none;stroke:#2ca02c;stroke-linecap:square;"/>
    </g>
    <g id="line2d_23"/>
    <g id="text_12">
     <!-- Venules -->
     <g transform="translate(186.991 91.500786)scale(0.06 -0.06)">
      <use xlink:href="#ArialMT-56"/>
      <use x="61.199219" xlink:href="#ArialMT-65"/>
      <use x="116.814453" xlink:href="#ArialMT-6e"/>
      <use x="172.429688" xlink:href="#ArialMT-75"/>
      <use x="228.044922" xlink:href="#ArialMT-6c"/>
      <use x="250.261719" xlink:href="#ArialMT-65"/>
      <use x="305.876953" xlink:href="#ArialMT-73"/>
     </g>
    </g>
    <g id="line2d_24">
     <path d="M 176.191 97.887973 
L 182.191 97.887973 
" style="fill:none;stroke:#d62728;stroke-linecap:square;"/>
    </g>
    <g id="line2d_25"/>
    <g id="text_13">
     <!-- Veins -->
     <g transform="translate(186.991 99.987973)scale(0.06 -0.06)">
      <use xlink:href="#ArialMT-56"/>
      <use x="61.199219" xlink:href="#ArialMT-65"/>
      <use x="116.814453" xlink:href="#ArialMT-69"/>
      <use x="139.03125" xlink:href="#ArialMT-6e"/>
      <use x="194.646484" xlink:href="#ArialMT-73"/>
     </g>
    </g>
   </g>
  </g>
  <g id="axes_3">
   <g id="patch_8">
    <path d="M 79.885 146.60841 
L 155.64 146.60841 
L 155.64 116.197197 
L 79.885 116.197197 
z
" style="fill:#ffffff;"/>
   </g>
   <g id="matplotlib.axis_5">
    <g id="xtick_5"/>
    <g id="xtick_6"/>
   </g>
   <g id="matplotlib.axis_6">
    <g id="ytick_5">
     <g id="line2d_26">
      <g>
       <use style="stroke:#000000;stroke-width:1.5;" x="79.885" xlink:href="#mec49c9ef70" y="146.60841"/>
      </g>
     </g>
     <g id="text_14">
      <!-- 0.00 -->
      <g transform="translate(59.262344 149.113645)scale(0.07 -0.07)">
       <defs>
        <path d="M 581 0 
L 581 641 
L 1222 641 
L 1222 0 
L 581 0 
z
" id="ArialMT-2e" transform="scale(0.015625)"/>
       </defs>
       <use xlink:href="#ArialMT-30"/>
       <use x="55.615234" xlink:href="#ArialMT-2e"/>
       <use x="83.398438" xlink:href="#ArialMT-30"/>
       <use x="139.013672" xlink:href="#ArialMT-30"/>
      </g>
     </g>
    </g>
    <g id="ytick_6">
     <g id="line2d_27">
      <g>
       <use style="stroke:#000000;stroke-width:1.5;" x="79.885" xlink:href="#mec49c9ef70" y="116.197197"/>
      </g>
     </g>
     <g id="text_15">
      <!-- 0.12 -->
      <g transform="translate(59.262344 118.702431)scale(0.07 -0.07)">
       <use xlink:href="#ArialMT-30"/>
       <use x="55.615234" xlink:href="#ArialMT-2e"/>
       <use x="83.398438" xlink:href="#ArialMT-31"/>
       <use x="139.013672" xlink:href="#ArialMT-32"/>
      </g>
     </g>
    </g>
    <g id="text_16">
     <!-- Ventricular -->
     <g transform="translate(8.638047 125.716397)scale(0.07 -0.07)">
      <use xlink:href="#ArialMT-56"/>
      <use x="61.199219" xlink:href="#ArialMT-65"/>
      <use x="116.814453" xlink:href="#ArialMT-6e"/>
      <use x="172.429688" xlink:href="#ArialMT-74"/>
      <use x="200.212891" xlink:href="#ArialMT-72"/>
      <use x="233.513672" xlink:href="#ArialMT-69"/>
      <use x="255.730469" xlink:href="#ArialMT-63"/>
      <use x="305.730469" xlink:href="#ArialMT-75"/>
      <use x="361.345703" xlink:href="#ArialMT-6c"/>
      <use x="383.5625" xlink:href="#ArialMT-61"/>
      <use x="439.177734" xlink:href="#ArialMT-72"/>
     </g>
     <!-- volume -->
     <g transform="translate(13.891875 133.12021)scale(0.07 -0.07)">
      <defs>
       <path d="M 1344 0 
L 81 3319 
L 675 3319 
L 1388 1331 
Q 1503 1009 1600 663 
Q 1675 925 1809 1294 
L 2547 3319 
L 3125 3319 
L 1869 0 
L 1344 0 
z
" id="ArialMT-76" transform="scale(0.015625)"/>
      </defs>
      <use xlink:href="#ArialMT-76"/>
      <use x="50" xlink:href="#ArialMT-6f"/>
      <use x="105.615234" xlink:href="#ArialMT-6c"/>
      <use x="127.832031" xlink:href="#ArialMT-75"/>
      <use x="183.447266" xlink:href="#ArialMT-6d"/>
      <use x="266.748047" xlink:href="#ArialMT-65"/>
     </g>
     <!-- (liters) -->
     <g transform="translate(15.45375 140.626397)scale(0.07 -0.07)">
      <use xlink:href="#ArialMT-28"/>
      <use x="33.300781" xlink:href="#ArialMT-6c"/>
      <use x="55.517578" xlink:href="#ArialMT-69"/>
      <use x="77.734375" xlink:href="#ArialMT-74"/>
      <use x="105.517578" xlink:href="#ArialMT-65"/>
      <use x="161.132812" xlink:href="#ArialMT-72"/>
      <use x="194.433594" xlink:href="#ArialMT-73"/>
      <use x="244.433594" xlink:href="#ArialMT-29"/>
     </g>
    </g>
   </g>
   <g id="line2d_28">
    <path clip-path="url(#p68b9d166cd)" d="M 79.885 122.681845 
L 80.756183 120.366116 
L 81.55161 118.82988 
L 82.271283 117.875106 
L 82.953078 117.312504 
L 83.596995 117.050194 
L 84.354545 116.998018 
L 99.73281 117.051892 
L 100.073708 117.926911 
L 102.91452 125.135162 
L 104.050845 127.154611 
L 105.225048 128.795991 
L 106.437128 130.109571 
L 107.724963 131.176288 
L 109.12643 132.048046 
L 110.717285 132.771584 
L 112.535405 133.351813 
L 114.694423 133.802924 
L 117.270093 134.109478 
L 120.300293 134.242919 
L 132.686235 134.244973 
L 140.79202 134.139936 
L 141.738958 133.871817 
L 142.079855 133.588278 
L 142.30712 133.060992 
L 142.837405 130.584973 
L 144.049485 125.400779 
L 145.0343 122.119937 
L 145.905483 119.952066 
L 146.70091 118.540407 
L 147.420583 117.687185 
L 148.102378 117.210003 
L 148.746295 117.016629 
L 149.806865 116.998028 
L 155.602123 116.998028 
L 155.602123 116.998028 
" style="fill:none;stroke:#1f77b4;stroke-linecap:square;"/>
   </g>
   <g id="patch_9">
    <path d="M 79.885 146.60841 
L 79.885 116.197197 
" style="fill:none;stroke:#000000;stroke-linecap:square;stroke-linejoin:miter;stroke-width:1.5;"/>
   </g>
  </g>
  <g id="axes_4">
   <g id="patch_10">
    <path d="M 79.885 198.047009 
L 155.64 198.047009 
L 155.64 167.635795 
L 79.885 167.635795 
z
" style="fill:#ffffff;"/>
   </g>
   <g id="matplotlib.axis_7">
    <g id="xtick_7"/>
    <g id="xtick_8"/>
   </g>
   <g id="matplotlib.axis_8">
    <g id="ytick_7">
     <g id="line2d_29">
      <g>
       <use style="stroke:#000000;stroke-width:1.5;" x="79.885" xlink:href="#mec49c9ef70" y="198.047009"/>
      </g>
     </g>
     <g id="text_17">
      <!-- 0 -->
      <g transform="translate(68.992344 200.552243)scale(0.07 -0.07)">
       <use xlink:href="#ArialMT-30"/>
      </g>
     </g>
    </g>
    <g id="ytick_8">
     <g id="line2d_30">
      <g>
       <use style="stroke:#000000;stroke-width:1.5;" x="79.885" xlink:href="#mec49c9ef70" y="167.635795"/>
      </g>
     </g>
     <g id="text_18">
      <!-- 1 -->
      <g transform="translate(68.992344 170.141029)scale(0.07 -0.07)">
       <use xlink:href="#ArialMT-31"/>
      </g>
     </g>
    </g>
    <g id="text_19">
     <!-- Activation -->
     <g transform="translate(10.000312 184.651011)scale(0.07 -0.07)">
      <use xlink:href="#ArialMT-41"/>
      <use x="66.699219" xlink:href="#ArialMT-63"/>
      <use x="116.699219" xlink:href="#ArialMT-74"/>
      <use x="144.482422" xlink:href="#ArialMT-69"/>
      <use x="166.699219" xlink:href="#ArialMT-76"/>
      <use x="216.699219" xlink:href="#ArialMT-61"/>
      <use x="272.314453" xlink:href="#ArialMT-74"/>
      <use x="300.097656" xlink:href="#ArialMT-69"/>
      <use x="322.314453" xlink:href="#ArialMT-6f"/>
      <use x="377.929688" xlink:href="#ArialMT-6e"/>
     </g>
    </g>
   </g>
   <g id="line2d_31">
    <path clip-path="url(#p38ff52360d)" d="M 79.885 198.047009 
L 98.596485 198.047009 
L 98.710118 167.635795 
L 98.82375 167.635795 
L 98.937383 198.047009 
L 155.602123 198.047009 
L 155.602123 198.047009 
" style="fill:none;stroke:#1f77b4;stroke-linecap:square;"/>
   </g>
   <g id="patch_11">
    <path d="M 79.885 198.047009 
L 79.885 167.635795 
" style="fill:none;stroke:#000000;stroke-linecap:square;stroke-linejoin:miter;stroke-width:1.5;"/>
   </g>
  </g>
  <g id="axes_5">
   <g id="patch_12">
    <path d="M 79.885 249.485607 
L 155.64 249.485607 
L 155.64 219.074393 
L 79.885 219.074393 
z
" style="fill:#ffffff;"/>
   </g>
   <g id="matplotlib.axis_9">
    <g id="xtick_9"/>
    <g id="xtick_10"/>
   </g>
   <g id="matplotlib.axis_10">
    <g id="ytick_9">
     <g id="line2d_32">
      <g>
       <use style="stroke:#000000;stroke-width:1.5;" x="79.885" xlink:href="#mec49c9ef70" y="249.485607"/>
      </g>
     </g>
     <g id="text_20">
      <!-- 0.0 -->
      <g transform="translate(63.155 251.990841)scale(0.07 -0.07)">
       <use xlink:href="#ArialMT-30"/>
       <use x="55.615234" xlink:href="#ArialMT-2e"/>
       <use x="83.398438" xlink:href="#ArialMT-30"/>
      </g>
     </g>
    </g>
    <g id="ytick_10">
     <g id="line2d_33">
      <g>
       <use style="stroke:#000000;stroke-width:1.5;" x="79.885" xlink:href="#mec49c9ef70" y="219.074393"/>
      </g>
     </g>
     <g id="text_21">
      <!-- 1.2 -->
      <g transform="translate(63.155 221.579628)scale(0.07 -0.07)">
       <use xlink:href="#ArialMT-31"/>
       <use x="55.615234" xlink:href="#ArialMT-2e"/>
       <use x="83.398438" xlink:href="#ArialMT-32"/>
      </g>
     </g>
    </g>
    <g id="text_22">
     <!-- Myofilament -->
     <g transform="translate(6.307813 226.47325)scale(0.07 -0.07)">
      <defs>
       <path d="M 475 0 
L 475 4581 
L 1388 4581 
L 2472 1338 
Q 2622 884 2691 659 
Q 2769 909 2934 1394 
L 4031 4581 
L 4847 4581 
L 4847 0 
L 4263 0 
L 4263 3834 
L 2931 0 
L 2384 0 
L 1059 3900 
L 1059 0 
L 475 0 
z
" id="ArialMT-4d" transform="scale(0.015625)"/>
       <path d="M 397 -1278 
L 334 -750 
Q 519 -800 656 -800 
Q 844 -800 956 -737 
Q 1069 -675 1141 -563 
Q 1194 -478 1313 -144 
Q 1328 -97 1363 -6 
L 103 3319 
L 709 3319 
L 1400 1397 
Q 1534 1031 1641 628 
Q 1738 1016 1872 1384 
L 2581 3319 
L 3144 3319 
L 1881 -56 
Q 1678 -603 1566 -809 
Q 1416 -1088 1222 -1217 
Q 1028 -1347 759 -1347 
Q 597 -1347 397 -1278 
z
" id="ArialMT-79" transform="scale(0.015625)"/>
       <path d="M 556 0 
L 556 2881 
L 59 2881 
L 59 3319 
L 556 3319 
L 556 3672 
Q 556 4006 616 4169 
Q 697 4388 901 4523 
Q 1106 4659 1475 4659 
Q 1713 4659 2000 4603 
L 1916 4113 
Q 1741 4144 1584 4144 
Q 1328 4144 1222 4034 
Q 1116 3925 1116 3625 
L 1116 3319 
L 1763 3319 
L 1763 2881 
L 1116 2881 
L 1116 0 
L 556 0 
z
" id="ArialMT-66" transform="scale(0.015625)"/>
      </defs>
      <use xlink:href="#ArialMT-4d"/>
      <use x="83.300781" xlink:href="#ArialMT-79"/>
      <use x="133.300781" xlink:href="#ArialMT-6f"/>
      <use x="188.916016" xlink:href="#ArialMT-66"/>
      <use x="216.699219" xlink:href="#ArialMT-69"/>
      <use x="238.916016" xlink:href="#ArialMT-6c"/>
      <use x="261.132812" xlink:href="#ArialMT-61"/>
      <use x="316.748047" xlink:href="#ArialMT-6d"/>
      <use x="400.048828" xlink:href="#ArialMT-65"/>
      <use x="455.664062" xlink:href="#ArialMT-6e"/>
      <use x="511.279297" xlink:href="#ArialMT-74"/>
     </g>
     <!-- [$\mathregular{Ca^{2+}}$] -->
     <g transform="translate(14.883906 238.110531)scale(0.07 -0.07)">
      <defs>
       <path d="M 434 -1272 
L 434 4581 
L 1675 4581 
L 1675 4116 
L 997 4116 
L 997 -806 
L 1675 -806 
L 1675 -1272 
L 434 -1272 
z
" id="ArialMT-5b" transform="scale(0.015625)"/>
       <path d="M 1603 741 
L 1603 1997 
L 356 1997 
L 356 2522 
L 1603 2522 
L 1603 3769 
L 2134 3769 
L 2134 2522 
L 3381 2522 
L 3381 1997 
L 2134 1997 
L 2134 741 
L 1603 741 
z
" id="ArialMT-2b" transform="scale(0.015625)"/>
       <path d="M 1363 -1272 
L 122 -1272 
L 122 -806 
L 800 -806 
L 800 4116 
L 122 4116 
L 122 4581 
L 1363 4581 
L 1363 -1272 
z
" id="ArialMT-5d" transform="scale(0.015625)"/>
      </defs>
      <use transform="translate(0 0.99375)" xlink:href="#ArialMT-5b"/>
      <use transform="translate(27.783203 0.99375)" xlink:href="#ArialMT-43"/>
      <use transform="translate(100 0.99375)" xlink:href="#ArialMT-61"/>
      <use transform="translate(157.357578 70.6875)scale(0.7)" xlink:href="#ArialMT-32"/>
      <use transform="translate(207.950352 70.6875)scale(0.7)" xlink:href="#ArialMT-2b"/>
      <use transform="translate(265.469492 0.99375)" xlink:href="#ArialMT-5d"/>
     </g>
     <!-- ($\mathregular{\mu}$M) -->
     <g transform="translate(17.893906 245.642531)scale(0.07 -0.07)">
      <defs>
       <path d="M 3181 3319 
L 3181 0 
L 2678 0 
L 2678 394 
Q 2516 144 2356 50 
Q 2138 -78 1847 -78 
Q 1588 -78 1388 25 
Q 1238 103 1056 334 
L 1056 -1272 
L 500 -1272 
L 500 3319 
L 1056 3319 
L 1056 1913 
Q 1056 1147 1137 920 
Q 1219 694 1401 562 
Q 1584 431 1822 431 
Q 2072 431 2269 568 
Q 2466 706 2547 923 
Q 2628 1141 2628 1903 
L 2628 3319 
L 3181 3319 
z
" id="ArialMT-3bc" transform="scale(0.015625)"/>
      </defs>
      <use transform="translate(0 0.203125)" xlink:href="#ArialMT-28"/>
      <use transform="translate(33.300781 0.203125)" xlink:href="#ArialMT-3bc"/>
      <use transform="translate(90.917969 0.203125)" xlink:href="#ArialMT-4d"/>
      <use transform="translate(174.21875 0.203125)" xlink:href="#ArialMT-29"/>
     </g>
    </g>
   </g>
   <g id="line2d_34">
    <path clip-path="url(#pc23dd7774f)" d="M 79.885 247.378309 
L 91.740658 247.52594 
L 98.596485 247.556394 
L 99.543423 222.85388 
L 99.5813 222.952614 
L 101.134278 226.678723 
L 102.687255 229.84119 
L 104.27811 232.585399 
L 105.906843 234.955819 
L 107.573453 236.994089 
L 109.315818 238.774172 
L 111.133938 240.313476 
L 113.06569 241.655446 
L 115.148953 242.826509 
L 117.383725 243.826913 
L 119.88364 244.698957 
L 122.724453 245.447027 
L 125.981918 246.069383 
L 129.8833 246.581217 
L 134.73162 246.98348 
L 141.132918 247.279078 
L 150.526538 247.471592 
L 155.602123 247.51867 
L 155.602123 247.51867 
" style="fill:none;stroke:#1f77b4;stroke-linecap:square;"/>
   </g>
   <g id="patch_13">
    <path d="M 79.885 249.485607 
L 79.885 219.074393 
" style="fill:none;stroke:#000000;stroke-linecap:square;stroke-linejoin:miter;stroke-width:1.5;"/>
   </g>
  </g>
  <g id="axes_6">
   <g id="patch_14">
    <path d="M 79.885 300.924205 
L 155.64 300.924205 
L 155.64 270.512991 
L 79.885 270.512991 
z
" style="fill:#ffffff;"/>
   </g>
   <g id="matplotlib.axis_11">
    <g id="xtick_11"/>
    <g id="xtick_12"/>
   </g>
   <g id="matplotlib.axis_12">
    <g id="ytick_11">
     <g id="line2d_35">
      <g>
       <use style="stroke:#000000;stroke-width:1.5;" x="79.885" xlink:href="#mec49c9ef70" y="300.924205"/>
      </g>
     </g>
     <g id="text_23">
      <!-- 880 -->
      <g transform="translate(61.207031 303.42944)scale(0.07 -0.07)">
       <use xlink:href="#ArialMT-38"/>
       <use x="55.615234" xlink:href="#ArialMT-38"/>
       <use x="111.230469" xlink:href="#ArialMT-30"/>
      </g>
     </g>
    </g>
    <g id="ytick_12">
     <g id="line2d_36">
      <g>
       <use style="stroke:#000000;stroke-width:1.5;" x="79.885" xlink:href="#mec49c9ef70" y="270.512991"/>
      </g>
     </g>
     <g id="text_24">
      <!-- 1200 -->
      <g transform="translate(57.314375 273.018226)scale(0.07 -0.07)">
       <use xlink:href="#ArialMT-31"/>
       <use x="55.615234" xlink:href="#ArialMT-32"/>
       <use x="111.230469" xlink:href="#ArialMT-30"/>
       <use x="166.845703" xlink:href="#ArialMT-30"/>
      </g>
     </g>
    </g>
    <g id="text_25">
     <!-- Half- -->
     <g transform="translate(17.784531 276.28927)scale(0.07 -0.07)">
      <defs>
       <path d="M 203 1375 
L 203 1941 
L 1931 1941 
L 1931 1375 
L 203 1375 
z
" id="ArialMT-2d" transform="scale(0.015625)"/>
      </defs>
      <use xlink:href="#ArialMT-48"/>
      <use x="72.216797" xlink:href="#ArialMT-61"/>
      <use x="127.832031" xlink:href="#ArialMT-6c"/>
      <use x="150.048828" xlink:href="#ArialMT-66"/>
      <use x="177.832031" xlink:href="#ArialMT-2d"/>
     </g>
     <!-- sarcomere -->
     <g transform="translate(8.642422 283.693083)scale(0.07 -0.07)">
      <use xlink:href="#ArialMT-73"/>
      <use x="50" xlink:href="#ArialMT-61"/>
      <use x="105.615234" xlink:href="#ArialMT-72"/>
      <use x="138.916016" xlink:href="#ArialMT-63"/>
      <use x="188.916016" xlink:href="#ArialMT-6f"/>
      <use x="244.53125" xlink:href="#ArialMT-6d"/>
      <use x="327.832031" xlink:href="#ArialMT-65"/>
      <use x="383.447266" xlink:href="#ArialMT-72"/>
      <use x="416.748047" xlink:href="#ArialMT-65"/>
     </g>
     <!-- length -->
     <g transform="translate(15.638594 291.096895)scale(0.07 -0.07)">
      <defs>
       <path d="M 422 0 
L 422 4581 
L 984 4581 
L 984 2938 
Q 1378 3394 1978 3394 
Q 2347 3394 2619 3248 
Q 2891 3103 3008 2847 
Q 3125 2591 3125 2103 
L 3125 0 
L 2563 0 
L 2563 2103 
Q 2563 2525 2380 2717 
Q 2197 2909 1863 2909 
Q 1613 2909 1392 2779 
Q 1172 2650 1078 2428 
Q 984 2206 984 1816 
L 984 0 
L 422 0 
z
" id="ArialMT-68" transform="scale(0.015625)"/>
      </defs>
      <use xlink:href="#ArialMT-6c"/>
      <use x="22.216797" xlink:href="#ArialMT-65"/>
      <use x="77.832031" xlink:href="#ArialMT-6e"/>
      <use x="133.447266" xlink:href="#ArialMT-67"/>
      <use x="189.0625" xlink:href="#ArialMT-74"/>
      <use x="216.845703" xlink:href="#ArialMT-68"/>
     </g>
     <!-- (nm) -->
     <g transform="translate(17.981406 298.685114)scale(0.07 -0.07)">
      <use xlink:href="#ArialMT-28"/>
      <use x="33.300781" xlink:href="#ArialMT-6e"/>
      <use x="88.916016" xlink:href="#ArialMT-6d"/>
      <use x="172.216797" xlink:href="#ArialMT-29"/>
     </g>
    </g>
   </g>
   <g id="line2d_37">
    <path clip-path="url(#p668b79d637)" d="M 79.885 286.283994 
L 80.718305 284.162949 
L 81.513733 282.73468 
L 82.233405 281.864461 
L 82.953078 281.334303 
L 83.634873 281.098518 
L 84.506055 281.060273 
L 99.770688 281.169934 
L 100.452483 282.819892 
L 102.30848 287.441698 
L 103.634193 290.144662 
L 104.922028 292.275997 
L 106.209863 293.979439 
L 107.497698 295.323928 
L 108.861288 296.433081 
L 110.33851 297.350415 
L 111.967243 298.100502 
L 113.82324 298.704843 
L 115.94438 299.154274 
L 118.36854 299.435312 
L 121.057843 299.52106 
L 140.602633 299.417002 
L 141.54957 299.122931 
L 141.966223 298.798108 
L 142.193488 298.361222 
L 142.420753 297.304375 
L 143.557078 291.115347 
L 144.42826 287.622994 
L 145.261565 285.13626 
L 146.056993 283.416638 
L 146.814543 282.276659 
L 147.534215 281.574238 
L 148.21601 281.200297 
L 148.935683 281.062249 
L 152.571923 281.060281 
L 155.602123 281.060281 
L 155.602123 281.060281 
" style="fill:none;stroke:#1f77b4;stroke-linecap:square;"/>
   </g>
   <g id="patch_15">
    <path d="M 79.885 300.924205 
L 79.885 270.512991 
" style="fill:none;stroke:#000000;stroke-linecap:square;stroke-linejoin:miter;stroke-width:1.5;"/>
   </g>
  </g>
  <g id="axes_7">
   <g id="patch_16">
    <path d="M 79.885 352.362803 
L 155.64 352.362803 
L 155.64 321.95159 
L 79.885 321.95159 
z
" style="fill:#ffffff;"/>
   </g>
   <g id="matplotlib.axis_13">
    <g id="xtick_13"/>
    <g id="xtick_14"/>
   </g>
   <g id="matplotlib.axis_14">
    <g id="ytick_13">
     <g id="line2d_38">
      <g>
       <use style="stroke:#000000;stroke-width:1.5;" x="79.885" xlink:href="#mec49c9ef70" y="352.362803"/>
      </g>
     </g>
     <g id="text_26">
      <!-- −0.22 -->
      <g transform="translate(55.173906 354.868038)scale(0.07 -0.07)">
       <defs>
        <path d="M 3381 1997 
L 356 1997 
L 356 2522 
L 3381 2522 
L 3381 1997 
z
" id="ArialMT-2212" transform="scale(0.015625)"/>
       </defs>
       <use xlink:href="#ArialMT-2212"/>
       <use x="58.398438" xlink:href="#ArialMT-30"/>
       <use x="114.013672" xlink:href="#ArialMT-2e"/>
       <use x="141.796875" xlink:href="#ArialMT-32"/>
       <use x="197.412109" xlink:href="#ArialMT-32"/>
      </g>
     </g>
    </g>
    <g id="ytick_14">
     <g id="line2d_39">
      <g>
       <use style="stroke:#000000;stroke-width:1.5;" x="79.885" xlink:href="#mec49c9ef70" y="321.95159"/>
      </g>
     </g>
     <g id="text_27">
      <!-- 24.00 -->
      <g transform="translate(55.369688 324.456824)scale(0.07 -0.07)">
       <defs>
        <path d="M 2069 0 
L 2069 1097 
L 81 1097 
L 81 1613 
L 2172 4581 
L 2631 4581 
L 2631 1613 
L 3250 1613 
L 3250 1097 
L 2631 1097 
L 2631 0 
L 2069 0 
z
M 2069 1613 
L 2069 3678 
L 634 1613 
L 2069 1613 
z
" id="ArialMT-34" transform="scale(0.015625)"/>
       </defs>
       <use xlink:href="#ArialMT-32"/>
       <use x="55.615234" xlink:href="#ArialMT-34"/>
       <use x="111.230469" xlink:href="#ArialMT-2e"/>
       <use x="139.013672" xlink:href="#ArialMT-30"/>
       <use x="194.628906" xlink:href="#ArialMT-30"/>
      </g>
     </g>
    </g>
    <g id="text_28">
     <!-- Wall -->
     <g transform="translate(18.499844 329.4129)scale(0.07 -0.07)">
      <defs>
       <path d="M 1294 0 
L 78 4581 
L 700 4581 
L 1397 1578 
Q 1509 1106 1591 641 
Q 1766 1375 1797 1488 
L 2669 4581 
L 3400 4581 
L 4056 2263 
Q 4303 1400 4413 641 
Q 4500 1075 4641 1638 
L 5359 4581 
L 5969 4581 
L 4713 0 
L 4128 0 
L 3163 3491 
Q 3041 3928 3019 4028 
Q 2947 3713 2884 3491 
L 1913 0 
L 1294 0 
z
" id="ArialMT-57" transform="scale(0.015625)"/>
      </defs>
      <use xlink:href="#ArialMT-57"/>
      <use x="90.634766" xlink:href="#ArialMT-61"/>
      <use x="146.25" xlink:href="#ArialMT-6c"/>
      <use x="168.466797" xlink:href="#ArialMT-6c"/>
     </g>
     <!-- stress -->
     <g transform="translate(15.839844 336.816712)scale(0.07 -0.07)">
      <use xlink:href="#ArialMT-73"/>
      <use x="50" xlink:href="#ArialMT-74"/>
      <use x="77.783203" xlink:href="#ArialMT-72"/>
      <use x="111.083984" xlink:href="#ArialMT-65"/>
      <use x="166.699219" xlink:href="#ArialMT-73"/>
      <use x="216.699219" xlink:href="#ArialMT-73"/>
     </g>
     <!-- (kN m$\mathregular{^{-2}}$) -->
     <g transform="translate(11.628906 348.371962)scale(0.07 -0.07)">
      <defs>
       <path d="M 425 0 
L 425 4581 
L 988 4581 
L 988 1969 
L 2319 3319 
L 3047 3319 
L 1778 2088 
L 3175 0 
L 2481 0 
L 1384 1697 
L 988 1316 
L 988 0 
L 425 0 
z
" id="ArialMT-6b" transform="scale(0.015625)"/>
       <path d="M 488 0 
L 488 4581 
L 1109 4581 
L 3516 984 
L 3516 4581 
L 4097 4581 
L 4097 0 
L 3475 0 
L 1069 3600 
L 1069 0 
L 488 0 
z
" id="ArialMT-4e" transform="scale(0.015625)"/>
      </defs>
      <use transform="translate(0 0.99375)" xlink:href="#ArialMT-28"/>
      <use transform="translate(33.300781 0.99375)" xlink:href="#ArialMT-6b"/>
      <use transform="translate(83.300781 0.99375)" xlink:href="#ArialMT-4e"/>
      <use transform="translate(155.517578 0.99375)" xlink:href="#ArialMT-20"/>
      <use transform="translate(183.300781 0.99375)" xlink:href="#ArialMT-6d"/>
      <use transform="translate(268.343906 70.6875)scale(0.7)" xlink:href="#ArialMT-2212"/>
      <use transform="translate(309.222812 70.6875)scale(0.7)" xlink:href="#ArialMT-32"/>
      <use transform="translate(353.131602 0.99375)" xlink:href="#ArialMT-29"/>
     </g>
    </g>
   </g>
   <g id="line2d_40">
    <path clip-path="url(#p6f1d5c0d25)" d="M 79.885 351.406689 
L 83.786383 349.908017 
L 86.930215 349.262382 
L 89.695273 348.942901 
L 93.483023 348.746858 
L 98.785873 348.556706 
L 98.937383 348.093736 
L 99.12677 346.810576 
L 99.354035 343.493293 
L 99.5813 336.013732 
L 99.88432 325.487247 
L 100.03583 325.368991 
L 100.18734 325.118876 
L 100.49036 324.594353 
L 100.603993 324.526828 
L 100.982768 324.274722 
L 101.39942 324.301747 
L 101.929705 324.571592 
L 102.649378 325.239173 
L 103.82358 326.667072 
L 106.85378 330.490996 
L 108.255248 331.797749 
L 109.73247 332.87161 
L 111.436958 333.829677 
L 113.406588 334.676837 
L 115.79287 335.454307 
L 118.709438 336.164824 
L 121.588128 336.881228 
L 122.497188 337.512098 
L 123.633513 338.590219 
L 125.413755 340.630922 
L 129.012118 344.79001 
L 130.868115 346.56053 
L 132.61048 347.914588 
L 134.352845 348.983684 
L 136.170965 349.834654 
L 138.140595 350.508669 
L 140.072348 350.953168 
L 142.0041 351.102707 
L 142.193488 351.330165 
L 142.61014 352.037257 
L 143.481323 351.879999 
L 144.844913 351.406711 
L 148.746295 349.908032 
L 151.890128 349.262395 
L 154.655185 348.94291 
L 155.602123 348.874415 
L 155.602123 348.874415 
" style="fill:none;stroke:#1f77b4;stroke-linecap:square;"/>
   </g>
   <g id="line2d_41">
    <path clip-path="url(#p6f1d5c0d25)" d="M 79.885 351.931608 
L 82.30916 351.632537 
L 85.49087 350.946799 
L 87.990785 350.535479 
L 91.058863 350.269853 
L 95.604163 350.12128 
L 98.785873 349.977422 
L 98.937383 349.514452 
L 99.12677 348.231291 
L 99.354035 344.914008 
L 99.5813 337.434448 
L 99.88432 326.820093 
L 100.111585 326.494156 
L 100.679748 325.376384 
L 101.058523 325.032025 
L 101.475175 324.949502 
L 101.967583 325.0838 
L 102.6115 325.543611 
L 103.558438 326.524826 
L 105.79321 329.305626 
L 107.232555 330.847275 
L 108.634023 332.020339 
L 110.187 333.023881 
L 111.967243 333.905156 
L 114.12626 334.715919 
L 116.777685 335.465196 
L 120.148783 336.179031 
L 121.436618 336.530747 
L 122.3078 337.089128 
L 123.406248 338.083389 
L 124.997103 339.861324 
L 129.353015 344.86828 
L 131.171135 346.545993 
L 132.875623 347.823407 
L 134.617988 348.851983 
L 136.436108 349.667558 
L 138.443615 350.321829 
L 140.18598 350.686396 
L 141.890468 350.823221 
L 142.15561 351.062649 
L 142.723773 351.982123 
L 143.935853 351.985013 
L 146.360013 351.774558 
L 148.51903 351.374607 
L 152.647678 350.574055 
L 155.602123 350.295129 
L 155.602123 350.295129 
" style="fill:none;stroke:#ff7f0e;stroke-linecap:square;"/>
   </g>
   <g id="line2d_42">
    <path clip-path="url(#p6f1d5c0d25)" d="M 79.885 351.561648 
L 82.46067 350.80845 
L 83.82426 350.668859 
L 88.937723 350.66585 
L 99.922198 350.775017 
L 101.285788 351.400427 
L 102.6115 351.74169 
L 104.505375 351.976703 
L 107.990105 352.14314 
L 116.55042 352.337878 
L 129.8833 352.35809 
L 142.30712 352.251987 
L 147.837235 350.742106 
L 149.238703 350.665853 
L 155.602123 350.665853 
L 155.602123 350.665853 
" style="fill:none;stroke:#2ca02c;stroke-linecap:square;"/>
   </g>
   <g id="patch_17">
    <path d="M 79.885 352.362803 
L 79.885 321.95159 
" style="fill:none;stroke:#000000;stroke-linecap:square;stroke-linejoin:miter;stroke-width:1.5;"/>
   </g>
   <g id="legend_3">
    <g id="patch_18">
     <path d="M 174.991 352.213152 
L 209.199437 352.213152 
Q 210.399437 352.213152 210.399437 351.013152 
L 210.399437 326.15159 
Q 210.399437 324.95159 209.199437 324.95159 
L 174.991 324.95159 
Q 173.791 324.95159 173.791 326.15159 
L 173.791 351.013152 
Q 173.791 352.213152 174.991 352.213152 
z
" style="fill:#ffffff;opacity:0.8;stroke:#cccccc;stroke-linejoin:miter;"/>
    </g>
    <g id="line2d_43">
     <path d="M 176.191 329.546277 
L 182.191 329.546277 
" style="fill:none;stroke:#1f77b4;stroke-linecap:square;"/>
    </g>
    <g id="line2d_44"/>
    <g id="text_29">
     <!-- Total -->
     <g transform="translate(186.991 331.646277)scale(0.06 -0.06)">
      <defs>
       <path d="M 1659 0 
L 1659 4041 
L 150 4041 
L 150 4581 
L 3781 4581 
L 3781 4041 
L 2266 4041 
L 2266 0 
L 1659 0 
z
" id="ArialMT-54" transform="scale(0.015625)"/>
      </defs>
      <use xlink:href="#ArialMT-54"/>
      <use x="49.958984" xlink:href="#ArialMT-6f"/>
      <use x="105.574219" xlink:href="#ArialMT-74"/>
      <use x="133.357422" xlink:href="#ArialMT-61"/>
      <use x="188.972656" xlink:href="#ArialMT-6c"/>
     </g>
    </g>
    <g id="line2d_45">
     <path d="M 176.191 338.033465 
L 182.191 338.033465 
" style="fill:none;stroke:#ff7f0e;stroke-linecap:square;"/>
    </g>
    <g id="line2d_46"/>
    <g id="text_30">
     <!-- Active -->
     <g transform="translate(186.991 340.133465)scale(0.06 -0.06)">
      <use xlink:href="#ArialMT-41"/>
      <use x="66.699219" xlink:href="#ArialMT-63"/>
      <use x="116.699219" xlink:href="#ArialMT-74"/>
      <use x="144.482422" xlink:href="#ArialMT-69"/>
      <use x="166.699219" xlink:href="#ArialMT-76"/>
      <use x="216.699219" xlink:href="#ArialMT-65"/>
     </g>
    </g>
    <g id="line2d_47">
     <path d="M 176.191 346.520652 
L 182.191 346.520652 
" style="fill:none;stroke:#2ca02c;stroke-linecap:square;"/>
    </g>
    <g id="line2d_48"/>
    <g id="text_31">
     <!-- Passive -->
     <g transform="translate(186.991 348.620652)scale(0.06 -0.06)">
      <use xlink:href="#ArialMT-50"/>
      <use x="66.699219" xlink:href="#ArialMT-61"/>
      <use x="122.314453" xlink:href="#ArialMT-73"/>
      <use x="172.314453" xlink:href="#ArialMT-73"/>
      <use x="222.314453" xlink:href="#ArialMT-69"/>
      <use x="244.53125" xlink:href="#ArialMT-76"/>
      <use x="294.53125" xlink:href="#ArialMT-65"/>
     </g>
    </g>
   </g>
  </g>
  <g id="axes_8">
   <g id="patch_19">
    <path d="M 79.885 403.801402 
L 155.64 403.801402 
L 155.64 373.390188 
L 79.885 373.390188 
z
" style="fill:#ffffff;"/>
   </g>
   <g id="matplotlib.axis_15">
    <g id="xtick_15"/>
    <g id="xtick_16"/>
   </g>
   <g id="matplotlib.axis_16">
    <g id="ytick_15">
     <g id="line2d_49">
      <g>
       <use style="stroke:#000000;stroke-width:1.5;" x="79.885" xlink:href="#mec49c9ef70" y="403.801402"/>
      </g>
     </g>
     <g id="text_32">
      <!-- 0 -->
      <g transform="translate(68.992344 406.306636)scale(0.07 -0.07)">
       <use xlink:href="#ArialMT-30"/>
      </g>
     </g>
    </g>
    <g id="ytick_16">
     <g id="line2d_50">
      <g>
       <use style="stroke:#000000;stroke-width:1.5;" x="79.885" xlink:href="#mec49c9ef70" y="373.390188"/>
      </g>
     </g>
     <g id="text_33">
      <!-- 1 -->
      <g transform="translate(68.992344 375.895422)scale(0.07 -0.07)">
       <use xlink:href="#ArialMT-31"/>
      </g>
     </g>
    </g>
    <g id="text_34">
     <!-- Thin -->
     <g transform="translate(18.365859 386.703498)scale(0.07 -0.07)">
      <use xlink:href="#ArialMT-54"/>
      <use x="61.083984" xlink:href="#ArialMT-68"/>
      <use x="116.699219" xlink:href="#ArialMT-69"/>
      <use x="138.916016" xlink:href="#ArialMT-6e"/>
     </g>
     <!-- filament -->
     <g transform="translate(12.919531 394.10731)scale(0.07 -0.07)">
      <use xlink:href="#ArialMT-66"/>
      <use x="27.783203" xlink:href="#ArialMT-69"/>
      <use x="50" xlink:href="#ArialMT-6c"/>
      <use x="72.216797" xlink:href="#ArialMT-61"/>
      <use x="127.832031" xlink:href="#ArialMT-6d"/>
      <use x="211.132812" xlink:href="#ArialMT-65"/>
      <use x="266.748047" xlink:href="#ArialMT-6e"/>
      <use x="322.363281" xlink:href="#ArialMT-74"/>
     </g>
    </g>
   </g>
   <g id="line2d_51">
    <path clip-path="url(#p4835b6f659)" d="M 79.885 373.844303 
L 91.09674 373.944919 
L 98.67224 374.053986 
L 98.899505 375.540793 
L 99.202525 379.098797 
L 99.543423 386.259159 
L 99.808565 390.701035 
L 100.111585 392.627793 
L 100.33885 392.980186 
L 100.566115 392.88477 
L 100.982768 392.351752 
L 101.778195 390.913056 
L 104.997783 383.991718 
L 106.171985 382.179199 
L 107.346188 380.768817 
L 108.596145 379.620784 
L 109.959735 378.672132 
L 111.55059 377.844428 
L 113.444465 377.121495 
L 115.754993 376.48697 
L 118.747315 375.907696 
L 124.27743 375.123157 
L 130.18632 374.399551 
L 134.958885 374.060717 
L 141.170795 373.861197 
L 146.663033 373.852706 
L 155.602123 373.943537 
L 155.602123 373.943537 
" style="fill:none;stroke:#1f77b4;stroke-linecap:square;"/>
   </g>
   <g id="line2d_52">
    <path clip-path="url(#p4835b6f659)" d="M 79.885 403.347287 
L 91.09674 403.24667 
L 98.67224 403.137603 
L 98.899505 401.650797 
L 99.202525 398.092793 
L 99.543423 390.93243 
L 99.808565 386.490555 
L 100.111585 384.563796 
L 100.33885 384.211404 
L 100.566115 384.30682 
L 100.982768 384.839838 
L 101.778195 386.278534 
L 104.997783 393.199872 
L 106.171985 395.012391 
L 107.346188 396.422773 
L 108.596145 397.570806 
L 109.959735 398.519457 
L 111.55059 399.347162 
L 113.444465 400.070095 
L 115.754993 400.70462 
L 118.747315 401.283894 
L 124.27743 402.068433 
L 130.18632 402.792039 
L 134.958885 403.130873 
L 141.170795 403.330392 
L 146.663033 403.338884 
L 155.602123 403.248053 
L 155.602123 403.248053 
" style="fill:none;stroke:#ff7f0e;stroke-linecap:square;"/>
   </g>
   <g id="patch_20">
    <path d="M 79.885 403.801402 
L 79.885 373.390188 
" style="fill:none;stroke:#000000;stroke-linecap:square;stroke-linejoin:miter;stroke-width:1.5;"/>
   </g>
   <g id="legend_4">
    <g id="patch_21">
     <path d="M 174.991 395.164563 
L 200.18725 395.164563 
Q 201.38725 395.164563 201.38725 393.964563 
L 201.38725 377.590188 
Q 201.38725 376.390188 200.18725 376.390188 
L 174.991 376.390188 
Q 173.791 376.390188 173.791 377.590188 
L 173.791 393.964563 
Q 173.791 395.164563 174.991 395.164563 
z
" style="fill:#ffffff;opacity:0.8;stroke:#cccccc;stroke-linejoin:miter;"/>
    </g>
    <g id="line2d_53">
     <path d="M 176.191 380.984876 
L 182.191 380.984876 
" style="fill:none;stroke:#1f77b4;stroke-linecap:square;"/>
    </g>
    <g id="line2d_54"/>
    <g id="text_35">
     <!-- OFF -->
     <g transform="translate(186.991 383.084876)scale(0.06 -0.06)">
      <defs>
       <path d="M 309 2231 
Q 309 3372 921 4017 
Q 1534 4663 2503 4663 
Q 3138 4663 3647 4359 
Q 4156 4056 4423 3514 
Q 4691 2972 4691 2284 
Q 4691 1588 4409 1038 
Q 4128 488 3612 205 
Q 3097 -78 2500 -78 
Q 1853 -78 1343 234 
Q 834 547 571 1087 
Q 309 1628 309 2231 
z
M 934 2222 
Q 934 1394 1379 917 
Q 1825 441 2497 441 
Q 3181 441 3623 922 
Q 4066 1403 4066 2288 
Q 4066 2847 3877 3264 
Q 3688 3681 3323 3911 
Q 2959 4141 2506 4141 
Q 1863 4141 1398 3698 
Q 934 3256 934 2222 
z
" id="ArialMT-4f" transform="scale(0.015625)"/>
       <path d="M 525 0 
L 525 4581 
L 3616 4581 
L 3616 4041 
L 1131 4041 
L 1131 2622 
L 3281 2622 
L 3281 2081 
L 1131 2081 
L 1131 0 
L 525 0 
z
" id="ArialMT-46" transform="scale(0.015625)"/>
      </defs>
      <use xlink:href="#ArialMT-4f"/>
      <use x="77.783203" xlink:href="#ArialMT-46"/>
      <use x="138.867188" xlink:href="#ArialMT-46"/>
     </g>
    </g>
    <g id="line2d_55">
     <path d="M 176.191 389.472063 
L 182.191 389.472063 
" style="fill:none;stroke:#ff7f0e;stroke-linecap:square;"/>
    </g>
    <g id="line2d_56"/>
    <g id="text_36">
     <!-- ON -->
     <g transform="translate(186.991 391.572063)scale(0.06 -0.06)">
      <use xlink:href="#ArialMT-4f"/>
      <use x="77.783203" xlink:href="#ArialMT-4e"/>
     </g>
    </g>
   </g>
  </g>
  <g id="axes_9">
   <g id="patch_22">
    <path d="M 79.885 455.24 
L 155.64 455.24 
L 155.64 424.828786 
L 79.885 424.828786 
z
" style="fill:#ffffff;"/>
   </g>
   <g id="matplotlib.axis_17">
    <g id="xtick_17">
     <g id="line2d_57">
      <defs>
       <path d="M 0 0 
L 0 3.5 
" id="m48321d7a36" style="stroke:#000000;stroke-width:1.5;"/>
      </defs>
      <g>
       <use style="stroke:#000000;stroke-width:1.5;" x="79.885" xlink:href="#m48321d7a36" y="455.24"/>
      </g>
     </g>
     <g id="text_37">
      <!-- 11 -->
      <g transform="translate(76.250469 467.250469)scale(0.07 -0.07)">
       <use xlink:href="#ArialMT-31"/>
       <use x="48.240234" xlink:href="#ArialMT-31"/>
      </g>
     </g>
    </g>
    <g id="xtick_18">
     <g id="line2d_58">
      <g>
       <use style="stroke:#000000;stroke-width:1.5;" x="155.64" xlink:href="#m48321d7a36" y="455.24"/>
      </g>
     </g>
     <g id="text_38">
      <!-- 12 -->
      <g transform="translate(151.747344 467.250469)scale(0.07 -0.07)">
       <use xlink:href="#ArialMT-31"/>
       <use x="55.615234" xlink:href="#ArialMT-32"/>
      </g>
     </g>
    </g>
    <g id="text_39">
     <!-- Time (s) -->
     <g transform="translate(105.063516 473.7375)scale(0.07 -0.07)">
      <use xlink:href="#ArialMT-54"/>
      <use x="57.333984" xlink:href="#ArialMT-69"/>
      <use x="79.550781" xlink:href="#ArialMT-6d"/>
      <use x="162.851562" xlink:href="#ArialMT-65"/>
      <use x="218.466797" xlink:href="#ArialMT-20"/>
      <use x="246.25" xlink:href="#ArialMT-28"/>
      <use x="279.550781" xlink:href="#ArialMT-73"/>
      <use x="329.550781" xlink:href="#ArialMT-29"/>
     </g>
    </g>
   </g>
   <g id="matplotlib.axis_18">
    <g id="ytick_17">
     <g id="line2d_59">
      <g>
       <use style="stroke:#000000;stroke-width:1.5;" x="79.885" xlink:href="#mec49c9ef70" y="455.24"/>
      </g>
     </g>
     <g id="text_40">
      <!-- 0 -->
      <g transform="translate(68.992344 457.745234)scale(0.07 -0.07)">
       <use xlink:href="#ArialMT-30"/>
      </g>
     </g>
    </g>
    <g id="ytick_18">
     <g id="line2d_60">
      <g>
       <use style="stroke:#000000;stroke-width:1.5;" x="79.885" xlink:href="#mec49c9ef70" y="424.828786"/>
      </g>
     </g>
     <g id="text_41">
      <!-- 1 -->
      <g transform="translate(68.992344 427.334021)scale(0.07 -0.07)">
       <use xlink:href="#ArialMT-31"/>
      </g>
     </g>
    </g>
    <g id="text_42">
     <!-- Thick -->
     <g transform="translate(16.812188 438.142096)scale(0.07 -0.07)">
      <use xlink:href="#ArialMT-54"/>
      <use x="61.083984" xlink:href="#ArialMT-68"/>
      <use x="116.699219" xlink:href="#ArialMT-69"/>
      <use x="138.916016" xlink:href="#ArialMT-63"/>
      <use x="188.916016" xlink:href="#ArialMT-6b"/>
     </g>
     <!-- filament -->
     <g transform="translate(12.919531 445.545909)scale(0.07 -0.07)">
      <use xlink:href="#ArialMT-66"/>
      <use x="27.783203" xlink:href="#ArialMT-69"/>
      <use x="50" xlink:href="#ArialMT-6c"/>
      <use x="72.216797" xlink:href="#ArialMT-61"/>
      <use x="127.832031" xlink:href="#ArialMT-6d"/>
      <use x="211.132812" xlink:href="#ArialMT-65"/>
      <use x="266.748047" xlink:href="#ArialMT-6e"/>
      <use x="322.363281" xlink:href="#ArialMT-74"/>
     </g>
    </g>
   </g>
   <g id="line2d_61">
    <path clip-path="url(#p80a7a79165)" d="M 79.885 425.594411 
L 85.718135 426.764791 
L 88.899845 427.065309 
L 93.293635 427.234208 
L 99.051015 427.45922 
L 99.240403 427.868551 
L 99.467668 428.982397 
L 99.694933 431.360204 
L 100.111585 436.181449 
L 100.414605 437.468982 
L 100.717625 437.974437 
L 101.0964 438.204287 
L 101.626685 438.242268 
L 102.422113 438.061634 
L 103.785703 437.484183 
L 108.444635 435.357516 
L 110.717285 434.692361 
L 113.558098 434.104043 
L 117.383725 433.552056 
L 122.61082 432.811716 
L 124.201675 432.194723 
L 126.474325 431.045822 
L 131.54991 428.424207 
L 133.97407 427.465463 
L 136.360353 426.760711 
L 138.9739 426.226311 
L 140.905653 426.017532 
L 142.269243 425.880096 
L 143.21618 425.389217 
L 144.049485 425.444054 
L 145.79185 425.819726 
L 149.200825 426.557774 
L 153.102208 427.012241 
L 155.602123 427.155562 
L 155.602123 427.155562 
" style="fill:none;stroke:#1f77b4;stroke-linecap:square;"/>
   </g>
   <g id="line2d_62">
    <path clip-path="url(#p80a7a79165)" d="M 79.885 454.481589 
L 85.18785 453.44901 
L 88.67258 453.132458 
L 93.255758 452.969555 
L 99.12677 452.756309 
L 99.354035 452.25843 
L 99.5813 451.134823 
L 100.300973 446.547267 
L 100.603993 445.981803 
L 101.020645 445.696372 
L 101.626685 445.585324 
L 102.800888 445.630234 
L 104.58113 445.950217 
L 110.414265 447.167873 
L 114.164138 447.610119 
L 119.315478 447.978962 
L 122.345678 448.251106 
L 123.936533 448.709959 
L 126.09555 449.588083 
L 132.837745 452.485998 
L 135.375538 453.245995 
L 138.026963 453.806195 
L 140.564755 454.129704 
L 142.382875 454.289546 
L 142.951038 454.642925 
L 143.594955 454.680486 
L 144.844913 454.4816 
L 150.147763 453.449018 
L 153.632493 453.132464 
L 155.602123 453.038898 
L 155.602123 453.038898 
" style="fill:none;stroke:#ff7f0e;stroke-linecap:square;"/>
   </g>
   <g id="line2d_63">
    <path clip-path="url(#p80a7a79165)" d="M 79.885 455.232787 
L 98.97526 455.046447 
L 99.316158 454.78936 
L 99.543423 454.331183 
L 99.808565 453.164788 
L 100.149463 451.809993 
L 100.452483 451.552259 
L 100.907013 451.439657 
L 101.70244 451.492708 
L 103.028153 451.82084 
L 107.232555 452.909066 
L 109.997613 453.324631 
L 114.050505 453.688529 
L 134.542233 455.010095 
L 143.708588 455.235902 
L 155.602123 455.114327 
L 155.602123 455.114327 
" style="fill:none;stroke:#2ca02c;stroke-linecap:square;"/>
   </g>
   <g id="patch_23">
    <path d="M 79.885 455.24 
L 79.885 424.828786 
" style="fill:none;stroke:#000000;stroke-linecap:square;stroke-linejoin:miter;stroke-width:1.5;"/>
   </g>
   <g id="patch_24">
    <path d="M 79.885 455.24 
L 155.64 455.24 
" style="fill:none;stroke:#000000;stroke-linecap:square;stroke-linejoin:miter;stroke-width:1.5;"/>
   </g>
   <g id="legend_5">
    <g id="patch_25">
     <path d="M 174.991 455.090349 
L 200.859438 455.090349 
Q 202.059438 455.090349 202.059438 453.890349 
L 202.059438 429.028786 
Q 202.059438 427.828786 200.859438 427.828786 
L 174.991 427.828786 
Q 173.791 427.828786 173.791 429.028786 
L 173.791 453.890349 
Q 173.791 455.090349 174.991 455.090349 
z
" style="fill:#ffffff;opacity:0.8;stroke:#cccccc;stroke-linejoin:miter;"/>
    </g>
    <g id="line2d_64">
     <path d="M 176.191 432.423474 
L 182.191 432.423474 
" style="fill:none;stroke:#1f77b4;stroke-linecap:square;"/>
    </g>
    <g id="line2d_65"/>
    <g id="text_43">
     <!-- SRX -->
     <g transform="translate(186.991 434.523474)scale(0.06 -0.06)">
      <defs>
       <path d="M 288 1472 
L 859 1522 
Q 900 1178 1048 958 
Q 1197 738 1509 602 
Q 1822 466 2213 466 
Q 2559 466 2825 569 
Q 3091 672 3220 851 
Q 3350 1031 3350 1244 
Q 3350 1459 3225 1620 
Q 3100 1781 2813 1891 
Q 2628 1963 1997 2114 
Q 1366 2266 1113 2400 
Q 784 2572 623 2826 
Q 463 3081 463 3397 
Q 463 3744 659 4045 
Q 856 4347 1234 4503 
Q 1613 4659 2075 4659 
Q 2584 4659 2973 4495 
Q 3363 4331 3572 4012 
Q 3781 3694 3797 3291 
L 3216 3247 
Q 3169 3681 2898 3903 
Q 2628 4125 2100 4125 
Q 1550 4125 1298 3923 
Q 1047 3722 1047 3438 
Q 1047 3191 1225 3031 
Q 1400 2872 2139 2705 
Q 2878 2538 3153 2413 
Q 3553 2228 3743 1945 
Q 3934 1663 3934 1294 
Q 3934 928 3725 604 
Q 3516 281 3123 101 
Q 2731 -78 2241 -78 
Q 1619 -78 1198 103 
Q 778 284 539 648 
Q 300 1013 288 1472 
z
" id="ArialMT-53" transform="scale(0.015625)"/>
       <path d="M 503 0 
L 503 4581 
L 2534 4581 
Q 3147 4581 3465 4457 
Q 3784 4334 3975 4021 
Q 4166 3709 4166 3331 
Q 4166 2844 3850 2509 
Q 3534 2175 2875 2084 
Q 3116 1969 3241 1856 
Q 3506 1613 3744 1247 
L 4541 0 
L 3778 0 
L 3172 953 
Q 2906 1366 2734 1584 
Q 2563 1803 2427 1890 
Q 2291 1978 2150 2013 
Q 2047 2034 1813 2034 
L 1109 2034 
L 1109 0 
L 503 0 
z
M 1109 2559 
L 2413 2559 
Q 2828 2559 3062 2645 
Q 3297 2731 3419 2920 
Q 3541 3109 3541 3331 
Q 3541 3656 3305 3865 
Q 3069 4075 2559 4075 
L 1109 4075 
L 1109 2559 
z
" id="ArialMT-52" transform="scale(0.015625)"/>
       <path d="M 28 0 
L 1800 2388 
L 238 4581 
L 959 4581 
L 1791 3406 
Q 2050 3041 2159 2844 
Q 2313 3094 2522 3366 
L 3444 4581 
L 4103 4581 
L 2494 2422 
L 4228 0 
L 3478 0 
L 2325 1634 
Q 2228 1775 2125 1941 
Q 1972 1691 1906 1597 
L 756 0 
L 28 0 
z
" id="ArialMT-58" transform="scale(0.015625)"/>
      </defs>
      <use xlink:href="#ArialMT-53"/>
      <use x="66.699219" xlink:href="#ArialMT-52"/>
      <use x="138.916016" xlink:href="#ArialMT-58"/>
     </g>
    </g>
    <g id="line2d_66">
     <path d="M 176.191 440.910661 
L 182.191 440.910661 
" style="fill:none;stroke:#ff7f0e;stroke-linecap:square;"/>
    </g>
    <g id="line2d_67"/>
    <g id="text_44">
     <!-- DRX -->
     <g transform="translate(186.991 443.010661)scale(0.06 -0.06)">
      <defs>
       <path d="M 494 0 
L 494 4581 
L 2072 4581 
Q 2606 4581 2888 4516 
Q 3281 4425 3559 4188 
Q 3922 3881 4101 3404 
Q 4281 2928 4281 2316 
Q 4281 1794 4159 1391 
Q 4038 988 3847 723 
Q 3656 459 3429 307 
Q 3203 156 2883 78 
Q 2563 0 2147 0 
L 494 0 
z
M 1100 541 
L 2078 541 
Q 2531 541 2789 625 
Q 3047 709 3200 863 
Q 3416 1078 3536 1442 
Q 3656 1806 3656 2325 
Q 3656 3044 3420 3430 
Q 3184 3816 2847 3947 
Q 2603 4041 2063 4041 
L 1100 4041 
L 1100 541 
z
" id="ArialMT-44" transform="scale(0.015625)"/>
      </defs>
      <use xlink:href="#ArialMT-44"/>
      <use x="72.216797" xlink:href="#ArialMT-52"/>
      <use x="144.433594" xlink:href="#ArialMT-58"/>
     </g>
    </g>
    <g id="line2d_68">
     <path d="M 176.191 449.397849 
L 182.191 449.397849 
" style="fill:none;stroke:#2ca02c;stroke-linecap:square;"/>
    </g>
    <g id="line2d_69"/>
    <g id="text_45">
     <!-- FG -->
     <g transform="translate(186.991 451.497849)scale(0.06 -0.06)">
      <defs>
       <path d="M 2638 1797 
L 2638 2334 
L 4578 2338 
L 4578 638 
Q 4131 281 3656 101 
Q 3181 -78 2681 -78 
Q 2006 -78 1454 211 
Q 903 500 622 1047 
Q 341 1594 341 2269 
Q 341 2938 620 3517 
Q 900 4097 1425 4378 
Q 1950 4659 2634 4659 
Q 3131 4659 3532 4498 
Q 3934 4338 4162 4050 
Q 4391 3763 4509 3300 
L 3963 3150 
Q 3859 3500 3706 3700 
Q 3553 3900 3268 4020 
Q 2984 4141 2638 4141 
Q 2222 4141 1919 4014 
Q 1616 3888 1430 3681 
Q 1244 3475 1141 3228 
Q 966 2803 966 2306 
Q 966 1694 1177 1281 
Q 1388 869 1791 669 
Q 2194 469 2647 469 
Q 3041 469 3416 620 
Q 3791 772 3984 944 
L 3984 1797 
L 2638 1797 
z
" id="ArialMT-47" transform="scale(0.015625)"/>
      </defs>
      <use xlink:href="#ArialMT-46"/>
      <use x="61.083984" xlink:href="#ArialMT-47"/>
     </g>
    </g>
   </g>
  </g>
 </g>
 <defs>
  <clipPath id="p3c500cbdb7">
   <rect height="30.411214" width="75.755" x="79.885" y="13.32"/>
  </clipPath>
  <clipPath id="pea8c87c151">
   <rect height="30.411214" width="75.755" x="79.885" y="64.758598"/>
  </clipPath>
  <clipPath id="p68b9d166cd">
   <rect height="30.411214" width="75.755" x="79.885" y="116.197197"/>
  </clipPath>
  <clipPath id="p38ff52360d">
   <rect height="30.411214" width="75.755" x="79.885" y="167.635795"/>
  </clipPath>
  <clipPath id="pc23dd7774f">
   <rect height="30.411214" width="75.755" x="79.885" y="219.074393"/>
  </clipPath>
  <clipPath id="p668b79d637">
   <rect height="30.411214" width="75.755" x="79.885" y="270.512991"/>
  </clipPath>
  <clipPath id="p6f1d5c0d25">
   <rect height="30.411214" width="75.755" x="79.885" y="321.95159"/>
  </clipPath>
  <clipPath id="p4835b6f659">
   <rect height="30.411214" width="75.755" x="79.885" y="373.390188"/>
  </clipPath>
  <clipPath id="p80a7a79165">
   <rect height="30.411214" width="75.755" x="79.885" y="424.828786"/>
  </clipPath>
 </defs>
</svg>
